<?xml version="1.0" encoding="utf-8"?>
<!-- Generator: Adobe Illustrator 19.0.0, SVG Export Plug-In . SVG Version: 6.00 Build 0)  -->
<svg version="1.1" id="图层_1" xmlns="http://www.w3.org/2000/svg" xmlns:xlink="http://www.w3.org/1999/xlink" x="0px" y="0px"
	 viewBox="0 0 720 720" style="enable-background:new 0 0 720 720;" xml:space="preserve">
<style type="text/css">
	.st0{fill:#FFFFFF;}
	.st1{fill:#0089E1;}
</style>
<g>
	<path class="st0" d="M469.7,314.3c0,0-3.7-7.2-8.2-15.1c-2.6-4.9-5.4-9.6-8.5-14.1c-0.3-0.4-0.6-0.8-0.8-1.2c0,0,0,0,0,0
		c-0.7-1-1.4-1.9-2.1-2.9c-0.2-0.3-0.5-0.6-0.7-0.9c-0.5-0.7-1-1.3-1.5-1.9c-0.3-0.3-0.5-0.7-0.8-1c-0.5-0.6-1-1.2-1.5-1.8
		c-0.3-0.3-0.5-0.6-0.8-1c-0.6-0.7-1.1-1.3-1.7-2c-0.2-0.2-0.4-0.5-0.6-0.7c-0.8-0.9-1.6-1.7-2.4-2.6c-0.2-0.2-0.3-0.4-0.5-0.5
		c-0.7-0.7-1.3-1.3-2-2c-0.3-0.3-0.6-0.6-0.9-0.9c-0.6-0.6-1.1-1.1-1.7-1.6c-0.3-0.3-0.6-0.6-0.9-0.9c-0.6-0.5-1.2-1.1-1.8-1.6
		c-0.3-0.3-0.6-0.5-0.9-0.8c-0.8-0.7-1.6-1.3-2.3-2c-0.1-0.1-0.2-0.2-0.4-0.3c-0.9-0.8-1.8-1.5-2.8-2.2c-0.3-0.2-0.6-0.4-0.8-0.6
		c-0.7-0.5-1.3-1-2-1.5c-0.3-0.3-0.7-0.5-1-0.8c-0.6-0.5-1.3-0.9-1.9-1.4c-0.3-0.2-0.7-0.5-1-0.7c-0.7-0.5-1.4-1-2.1-1.4
		c-0.3-0.2-0.6-0.4-0.9-0.6c-1-0.6-2-1.3-3-1.9c-0.2-0.1-0.3-0.2-0.5-0.3c-0.8-0.5-1.7-1-2.6-1.5c-0.3-0.2-0.7-0.4-1.1-0.6
		c-0.7-0.4-1.4-0.8-2.1-1.2c-0.4-0.2-0.8-0.4-1.2-0.6c-0.7-0.4-1.4-0.7-2.1-1.1c-0.4-0.2-0.7-0.4-1.1-0.5c-0.9-0.4-1.8-0.8-2.6-1.2
		c-0.2-0.1-0.4-0.2-0.6-0.3c-1.1-0.5-2.2-1-3.3-1.4c-0.3-0.1-0.6-0.3-0.9-0.4c-0.8-0.3-1.6-0.7-2.4-1c-0.4-0.2-0.8-0.3-1.2-0.5
		c-0.7-0.3-1.5-0.6-2.2-0.8c-0.4-0.1-0.8-0.3-1.2-0.4c-0.8-0.3-1.6-0.5-2.4-0.8c-0.4-0.1-0.7-0.2-1.1-0.3c-1.2-0.4-2.3-0.7-3.5-1
		c-0.1,0-0.2-0.1-0.4-0.1c-1.1-0.3-2.1-0.6-3.2-0.8c-0.4-0.1-0.8-0.2-1.2-0.3c-0.8-0.2-1.6-0.4-2.4-0.6c-0.4-0.1-0.9-0.2-1.3-0.3
		c-0.8-0.2-1.6-0.3-2.4-0.5c-0.4-0.1-0.8-0.2-1.3-0.2c-0.9-0.2-1.9-0.3-2.8-0.5c-0.3,0-0.6-0.1-0.8-0.1c-1.2-0.2-2.4-0.4-3.7-0.5
		c-0.3,0-0.6-0.1-1-0.1c-0.9-0.1-1.8-0.2-2.8-0.3c-0.4,0-0.9-0.1-1.3-0.1c-0.8-0.1-1.7-0.1-2.5-0.2c-0.5,0-0.9-0.1-1.4-0.1
		c-0.9,0-1.7-0.1-2.6-0.1c-0.4,0-0.8,0-1.2,0c-1.3,0-2.5-0.1-3.8-0.1c-72.6,0-131.5,58.9-131.5,131.5s58.9,131.5,131.5,131.5
		c1.1,0,2.1,0,3.2,0c0.3,0,0.7,0,1,0c0.7,0,1.4,0,2.1-0.1c0.4,0,0.8,0,1.2-0.1c0.7,0,1.3-0.1,2-0.1c0.4,0,0.8-0.1,1.3-0.1
		c0.6-0.1,1.3-0.1,1.9-0.2c0.4,0,0.8-0.1,1.2-0.1c0.7-0.1,1.3-0.1,2-0.2c0.4,0,0.8-0.1,1.1-0.1c0.8-0.1,1.5-0.2,2.3-0.3
		c0.3,0,0.5-0.1,0.8-0.1c1-0.2,2-0.3,3.1-0.5c0.2,0,0.5-0.1,0.7-0.1c0.8-0.1,1.5-0.3,2.3-0.4c0.4-0.1,0.7-0.2,1.1-0.2
		c0.6-0.1,1.3-0.3,1.9-0.4c0.4-0.1,0.8-0.2,1.2-0.3c0.6-0.1,1.2-0.3,1.8-0.4c0.4-0.1,0.8-0.2,1.2-0.3c0.6-0.2,1.2-0.3,1.8-0.5
		c0.4-0.1,0.8-0.2,1.1-0.3c0.7-0.2,1.3-0.4,2-0.6c0.3-0.1,0.6-0.2,1-0.3c0.9-0.3,1.8-0.6,2.7-0.9c0.1,0,0.1,0,0.2-0.1
		c1-0.3,1.9-0.7,2.9-1c0.3-0.1,0.6-0.2,0.9-0.3c0.6-0.2,1.3-0.5,1.9-0.7c0.4-0.1,0.7-0.3,1.1-0.4c0.6-0.2,1.2-0.5,1.7-0.7
		c0.4-0.2,0.7-0.3,1.1-0.5c0.6-0.2,1.1-0.5,1.7-0.7c0.4-0.2,0.7-0.3,1.1-0.5c0.6-0.3,1.2-0.5,1.7-0.8c0.3-0.2,0.7-0.3,1-0.5
		c0.7-0.3,1.3-0.6,2-1c0.2-0.1,0.5-0.2,0.7-0.4c0.9-0.5,1.8-0.9,2.6-1.4c0.2-0.1,0.4-0.2,0.6-0.3c0.7-0.4,1.4-0.8,2.1-1.1
		c0.3-0.2,0.6-0.4,0.9-0.5c0.6-0.3,1.1-0.7,1.7-1c0.3-0.2,0.7-0.4,1-0.6c0.5-0.3,1-0.6,1.6-1c0.3-0.2,0.7-0.4,1-0.6
		c0.5-0.3,1-0.7,1.5-1c0.3-0.2,0.6-0.4,1-0.6c0.5-0.4,1.1-0.7,1.6-1.1c0.3-0.2,0.6-0.4,0.8-0.6c0.7-0.5,1.4-1,2.1-1.5
		c0.1-0.1,0.2-0.1,0.3-0.2c0.8-0.6,1.6-1.2,2.4-1.8c0.2-0.2,0.5-0.4,0.7-0.6c0.5-0.4,1.1-0.9,1.6-1.3c0.3-0.2,0.6-0.5,0.9-0.7
		c0.5-0.4,1-0.8,1.4-1.2c0.3-0.3,0.6-0.5,0.9-0.8c0.5-0.4,0.9-0.8,1.4-1.2c0.3-0.3,0.6-0.5,0.9-0.8c0.5-0.4,0.9-0.9,1.4-1.3
		c0.3-0.3,0.5-0.5,0.8-0.8c0.5-0.5,1-1,1.5-1.5c0.2-0.2,0.4-0.4,0.6-0.6c0.7-0.7,1.4-1.4,2.1-2.1c0.1-0.1,0.2-0.3,0.4-0.4
		c0.6-0.6,1.1-1.2,1.6-1.8c0.2-0.3,0.5-0.5,0.7-0.8c0.4-0.5,0.9-1,1.3-1.5c0.3-0.3,0.5-0.6,0.8-0.9c0.4-0.5,0.8-0.9,1.2-1.4
		c0.3-0.3,0.5-0.6,0.8-0.9c0.4-0.5,0.8-0.9,1.1-1.4c0.2-0.3,0.5-0.6,0.7-0.9c0.4-0.5,0.8-1,1.2-1.5c0.2-0.3,0.4-0.5,0.6-0.8
		c0.5-0.7,1-1.3,1.5-2c0.1-0.1,0.2-0.3,0.3-0.4c0.6-0.8,1.1-1.6,1.7-2.4c0.2-0.2,0.3-0.5,0.5-0.7c0.4-0.6,0.8-1.2,1.2-1.8
		c0.2-0.3,0.4-0.6,0.6-0.9c0.3-0.5,0.7-1.1,1-1.6c0.2-0.3,0.4-0.7,0.6-1c0.3-0.5,0.6-1.1,0.9-1.6c0.2-0.3,0.4-0.7,0.6-1
		c0.3-0.5,0.6-1.1,0.9-1.6c0.2-0.3,0.4-0.7,0.5-1c0.3-0.6,0.7-1.2,1-1.9c0.1-0.3,0.3-0.5,0.4-0.8c0.5-0.9,0.9-1.8,1.3-2.7
		c0.1-0.1,0.1-0.3,0.2-0.4c0.4-0.8,0.7-1.6,1.1-2.3c0.1-0.3,0.3-0.6,0.4-0.9c0.3-0.6,0.5-1.2,0.8-1.8c0.2-0.4,0.3-0.7,0.5-1.1
		c0.2-0.6,0.5-1.1,0.7-1.7c0.1-0.4,0.3-0.7,0.4-1.1c0.2-0.6,0.4-1.2,0.7-1.7c0.1-0.4,0.3-0.7,0.4-1.1c0.2-0.6,0.4-1.2,0.7-1.9
		c0.1-0.3,0.2-0.7,0.3-1c0.3-0.8,0.5-1.5,0.8-2.3c0.1-0.2,0.1-0.4,0.2-0.6c0.3-1,0.6-1.9,0.9-2.9c0.1-0.3,0.2-0.6,0.2-0.8
		c0.2-0.7,0.4-1.4,0.6-2.1c0.1-0.4,0.2-0.7,0.3-1.1c0.2-0.6,0.3-1.2,0.5-1.9c0.1-0.4,0.2-0.8,0.3-1.2c0.1-0.3,0.1-0.6,0.2-0.9
		c0-0.1,0-0.2,0.1-0.4c0.5-2.4,1-4.9,1.4-7.3c0,0,0,0,0,0c13.1-2.6,31.8-1.5,31.8-1.5L469.7,314.3z"/>
	<g>
		<path class="st1" d="M493.8,356c-0.5-0.8-1.9-1.3-2.9-1.4c-11.6-0.5-23,1-34,4.9c-5.1,1.8-10.3,3.6-15.8,5.6c0-2.8-0.2-5,0.1-7.1
			c0.2-1.2,1.2-3,2.1-3.2c10.5-2.6,21-5.1,31.6-7.1c4.2-0.8,8.6-0.6,13.7-0.9c-3.9-6.6-7.6-11.9-10.3-17.6
			c-2.5-5.4-5.3-6.6-11.6-5.9c-19,2.2-35.3,10.2-51.1,20.1c-14.4,9-28.7,18.2-43.6,26c-11.2,5.8-23.5,8.7-36.4,6.2
			c-3.4-0.7-6.8-1.1-11.2-1.8c8.1,7,17.1,9.8,26.4,10.6c14,1.3,27.7-1.4,40.8-6.5c9.3-3.7,18.3-8.1,27.5-12.2
			c4.2-1.8,8.3-3.6,13.1-5.7c-0.3,4.9,1,9.2-4.2,11.7c-14,6.7-28.3,12.6-43.4,16.3c-14.5,3.6-29,4.5-43.6,0.7
			c-2.9-0.8-5.7-2-8.6-3.1c-0.1,0.5-0.2,0.9-0.3,1.4c26.7,21.2,56.5,17.7,87.4,10.4c-4.7,6.1-9.5,12-15.2,16.7
			c-13.8,11.4-29.8,16.7-47.9,17c-17.6,0.3-33.6-4.8-46.9-15.3c-21.1-16.7-31.8-39.1-29.8-66.6s15.8-47.7,39.1-61.5
			c13.6-8,28.6-10.5,44.2-9c15.5,1.4,29.4,6.5,41.3,16.7c5.1,4.4,5,4.5,10.7-0.6c-10.8-11-22.9-19.2-37-24.3
			c-15.2-5.5-30.8-7.4-46.8-4.7c-18.5,3.1-34.9,10.6-48.8,23.3c-15.9,14.5-26.1,32.2-30.5,53.5c-2.5,12.4-2.2,24.6,0.3,36.8
			c5.4,26.2,19.5,46.9,41.8,61.2c24.8,15.9,52.2,20.1,80.6,10.8c27.5-9,47.4-27.1,58.8-53.8c2.1-5,4.6-7.4,9.8-9.1
			c18.8-6.1,37.7-10.8,57.7-9.6c1.6,0.1,3.2,0,5.7,0C502.1,370.5,498,363.2,493.8,356z"/>
		<path class="st1" d="M389.4,326.7c-10.3,10-20.7,20.1-31.6,29.4c-5.3,4.5-12,7.2-20,7.8c1.7-2.2,2.8-3.7,4.1-5.2
			c4.8-5.8,5.8-12.4,2.4-19c-3.6-7.1-9.3-11.5-17.9-11.4c-8.1,0.1-15.5,5.6-18.1,13.6c-2.6,8,1.4,17.3,7.5,21.3
			c13.8,9,28.7,11.1,43.4,3.5c14.3-7.4,28.1-15.8,41.6-24.6c13.6-8.9,27.4-17.3,42.9-22.2c8.1-2.6,16.8-3.6,26-5.6
			c-4.2-7.4-8.3-14.8-12.7-22.1c-0.4-0.7-2-0.8-3-0.8c-9.6-0.1-18.4,2.9-27,6.7C412.2,304.7,400.8,315.6,389.4,326.7z"/>
		<path class="st1" d="M290.3,266.8l3.6-2.4l-7.5-11l-8.4,5.8l-1.7-2.4c-0.5-0.7-0.8-1.4-1-2c0-0.2-0.1-0.3-0.1-0.4
			c0-0.1-0.3,0-0.8,0.3c-0.3,0.2-1.4,0.9-3.3,2.2l3.2,4.7l-7.9,5.4l7.7,11.3l3.3-2.3l-1.2-1.7l4.7-3.2l5.7,8.3l3.5-2.4l-5.7-8.3
			l4.8-3.3L290.3,266.8z M274.4,271.7l-2.9-4.3l4.7-3.2l2.9,4.3L274.4,271.7z M282.7,266l-2.9-4.3l4.8-3.3l2.9,4.3L282.7,266z"/>
		<path class="st1" d="M335.7,260.6l3.8-0.7l-4.5-26l-24.1,4.2l4.6,26.2l3.7-0.6l-0.3-1.5l16.6-2.9L335.7,260.6z M318.3,259.2
			l-3.2-18.6l16.6-2.9l3.2,18.6L318.3,259.2z"/>
		<path class="st1" d="M331.5,245.1l-5.2,0.9l-0.4-2.5l5.7-1l-0.5-2.9l-14.5,2.5l0.5,2.9l5.2-0.9l0.4,2.5l-4.7,0.8l0.5,2.9l4.7-0.8
			l0.7,3.8l-5.4,0.9l0.5,3l15-2.6l-0.5-3l-2.2,0.4l1.5-1.5c-0.2-0.2-0.9-1-2.1-2.4l1.4-0.2L331.5,245.1z M327.4,252.7l-0.7-3.8
			l2.3-0.4l-1.5,1.5c0.8,0.7,1.5,1.5,2.2,2.4L327.4,252.7z"/>
		<path class="st1" d="M357.3,255.4c1.3,1,2.3,2,3.1,3c6.6-3.4,10.6-8.2,11.9-14.6l-10-2.6l-0.9,3.3l6.2,1.6
			C365.3,250.7,361.8,253.8,357.3,255.4z"/>
		<path class="st1" d="M385,249c0.1-0.1,0.3-0.1,0.5-0.1c0.8-0.1,1-0.5,0.7-1.2c-1.2-2.1-2-3.2-2.5-3.4c-0.1,0.1-0.4,0.3-0.9,0.6
			c-1.8,1.5-3.4,2.5-4.8,3.1c-0.1-2-0.2-4.1-0.1-6.1l0.4-1.4c0.1-0.4,0.2-0.8,0.4-1.2c0.2-0.3,0.3-0.5,0.3-0.7
			c0.1-0.2-0.7-0.5-2.5-1l-1.6-0.4l-5.6,21.7c-0.1,0.5-0.3,0.8-0.8,0.9c-0.4,0.1-1.3-0.1-2.8-0.6c0.2,1.4,0.3,2.7,0.2,3.8
			c2.6,0.7,4.4,0.9,5.3,0.6c0.8-0.1,1.4-0.8,1.7-2.2l2.5-9.8c0.7,4.4,2.5,8.6,5.2,12.5c0.4-0.2,0.9-0.6,1.6-1.2
			c1.3-1,2.1-1.5,2.5-1.8c-3.2-3.4-5.2-6.6-6-9.7c1-0.4,2.3-1,4.1-1.7C383.9,249.4,384.6,249.1,385,249z"/>
		<path class="st1" d="M410.7,278.3c0.7,3.8,2.4,7.7,5.1,11.8c1.5-0.6,3.1-1.2,4.7-1.7c-2.8-3-4.6-6.4-5.5-10
			c3.9-1.1,7.4-3,10.5-5.7l3.6,3l2.1-2.5l-9.5-7.7l2.6,1.2c0.2-0.6,0.7-2,1.5-4.1c-1.4-0.7-2.7-1.4-3.9-2.1
			c-0.4,1.4-0.9,2.7-1.5,3.9l-8.6-6.9l-2.1,2.5l3.8,3.1c-2.1,4.2-3.2,7.8-3.3,11c-3.6,0.1-7.5-0.8-11.6-2.6c0.2,1,0.3,2.4,0.3,4.3
			c0-0.1,0.1,0,0,0.3C403.4,277.4,407.3,278.1,410.7,278.3z M416.8,265.6l5.3,4.3c-2.3,2-4.9,3.4-7.7,4.1
			C414.4,271.5,415.2,268.6,416.8,265.6z"/>
		<path class="st1" d="M249.9,409.3c-2.1-0.5-4.4-0.1-6.8,1.4c-1.8,1.1-3.1,2.4-3.9,3.8c-0.7,1.4-1,2.8-0.9,4.1
			c0.1,1.3,0.7,2.8,1.7,4.4c0.8,1.3,1.6,2.3,2.5,3c0.9,0.6,1.9,1,3,1.1c1.1,0.1,2.3,0,3.6-0.4l-1.2-4.8c-1.1,0.4-2,0.5-2.7,0.3
			c-0.8-0.2-1.4-0.7-1.9-1.6c-0.5-0.9-0.7-1.8-0.3-2.7c0.3-0.9,1.3-1.8,2.9-2.8c1.3-0.8,2.4-1.2,3.3-1.1c1.2,0.1,2.1,0.6,2.7,1.6
			c0.3,0.5,0.4,0.9,0.5,1.4c0,0.5-0.1,1-0.3,1.4c-0.1,0.3-0.4,0.6-0.7,1l3.3,3.5c1.3-1.5,2-2.9,2.1-4.5c0.1-1.5-0.4-3.2-1.5-5.1
			C253.7,411.2,252,409.8,249.9,409.3z"/>
		<polygon class="st1" points="259.2,421 246,432.1 249.4,436.2 254.8,431.7 258.5,436.2 253.2,440.7 256.7,444.8 269.9,433.6 
			266.4,429.5 261.8,433.4 258,428.9 262.7,425 		"/>
		
			<rect x="264.9" y="434.4" transform="matrix(-0.7335 -0.6797 0.6797 -0.7335 162.7156 949.8322)" class="st1" width="5.4" height="17.3"/>
		<polygon class="st1" points="276.8,440 266.7,454.1 270.8,457 276.4,449.3 276.1,460.8 280.2,463.8 290.3,449.7 286.2,446.8 
			280.6,454.5 280.9,443 		"/>
		<path class="st1" d="M298.8,473.3l1.9-18.4l-5.2-2.6L282,464.9l4.9,2.4l2-2.2l5.4,2.7l-0.5,2.9L298.8,473.3z M291.5,462.3l4.5-4.7
			l-1.1,6.4L291.5,462.3z"/>
		<path class="st1" d="M312.6,459.9l-3.9,16.9l5.2,1.2l1.6-6.8l5.7,1.3l-1.6,6.8l5.2,1.2l3.8-16.2l5.7,9.8l-0.5,7.2l5.4,0.3l0.5-7.2
			l6.9-9l1.5,16.5l7.9-0.7c0.9-0.1,2-0.3,3.1-0.8c0.8-0.3,1.6-0.8,2.3-1.6c0.7-0.8,1.2-1.7,1.5-2.7s0.4-2.5,0.2-4.3
			c-0.1-1.2-0.4-2.3-0.7-3.3c-0.3-1-0.9-1.9-1.6-2.6s-1.6-1.3-2.6-1.6c-1-0.3-2.3-0.4-3.8-0.3l-7.9,0.7v0.1l-5.4-0.3l-3.9,5.6
			l-3.1-6.1l-5.4-0.3l-5.2-1.2l-1.4,5.9l-5.7-1.3l1.4-5.9L312.6,459.9z M353.5,468c1.4-0.1,2.4,0.1,3.1,0.7c0.7,0.6,1.1,1.8,1.2,3.7
			c0.1,1.4,0.1,2.4-0.1,3c-0.2,0.6-0.5,1.1-1,1.4c-0.4,0.3-1.2,0.5-2.3,0.6l-1.3,0.1l-0.9-9.4L353.5,468z"/>
		<path class="st1" d="M379.3,466.4c0.2-0.8,0.2-1.6,0-2.6c-0.3-1.1-0.8-1.9-1.5-2.5c-0.7-0.6-1.5-0.9-2.4-1
			c-0.9-0.1-2.2,0.1-3.8,0.5L363,463l4.3,16.8l5.2-1.3l-1.7-6.8l0.5-0.1c0.5-0.1,0.9-0.1,1.4,0.1c0.3,0.1,0.7,0.5,1.3,1.1l4.1,4.4
			l5.9-1.5l-3.8-4.2c-0.2-0.2-0.5-0.5-1-0.9c-0.5-0.4-0.8-0.6-1.1-0.7c-0.3-0.1-0.8-0.2-1.5-0.3c0.7-0.4,1.3-0.7,1.7-1.1
			C378.7,467.9,379.1,467.2,379.3,466.4z M374.1,466.7c-0.1,0.3-0.4,0.6-0.7,0.7c-0.6,0.3-1.1,0.5-1.3,0.6l-2.2,0.6l-0.9-3.4
			l2.3-0.6c0.9-0.2,1.6-0.3,2-0.1c0.4,0.2,0.7,0.6,0.8,1.1C374.3,466,374.2,466.3,374.1,466.7z"/>
		<path class="st1" d="M385.9,455.5c-2.6,1.1-4.3,2.7-5.1,4.8c-0.8,2.1-0.7,4.4,0.5,7c0.8,1.9,1.8,3.2,3.1,4.2
			c1.3,0.9,2.6,1.4,4,1.5c1.4,0.1,3-0.3,4.8-1.1c1.8-0.8,3.1-1.7,4-2.9c0.9-1.2,1.4-2.5,1.5-4c0.1-1.5-0.2-3.1-1.1-5
			c-1.1-2.6-2.7-4.2-4.7-5S388.5,454.4,385.9,455.5z M393.5,466.2c-0.3,0.9-0.9,1.6-2,2.1c-1,0.4-2,0.5-2.9,0
			c-0.9-0.4-1.7-1.5-2.4-3.1c-0.7-1.6-0.9-2.9-0.6-3.9s0.9-1.7,1.9-2.1c1-0.5,2-0.5,2.9,0c0.9,0.4,1.7,1.4,2.3,2.9
			C393.5,463.9,393.8,465.2,393.5,466.2z"/>
		<polygon class="st1" points="399.3,448.8 394.8,451.7 404,466.3 415.6,459 413.3,455.4 406.3,459.9 		"/>
		<path class="st1" d="M412.3,438.8c-2.1,1.8-3.3,3.9-3.4,6.1c-0.2,2.2,0.7,4.4,2.5,6.5c1.3,1.5,2.7,2.5,4.2,3s2.9,0.6,4.3,0.2
			c1.4-0.4,2.8-1.2,4.3-2.5s2.4-2.6,2.9-4c0.5-1.4,0.6-2.8,0.3-4.2c-0.3-1.4-1.2-2.9-2.5-4.4c-1.8-2.1-3.8-3.2-6-3.4
			C416.7,436.1,414.5,437,412.3,438.8z M420.8,443.1c1.3,1.5,1.9,2.7,1.9,3.7s-0.4,1.8-1.3,2.6c-0.8,0.7-1.8,1-2.8,0.9
			c-1-0.1-2.1-0.9-3.2-2.2c-1.2-1.3-1.7-2.5-1.7-3.5s0.4-1.9,1.2-2.6c0.9-0.7,1.8-1,2.8-0.9C418.7,441.2,419.8,441.8,420.8,443.1z"
			/>
		<path class="st1" d="M424.9,425.9c-1.3,1.5-2,2.9-2.4,4.2c-0.4,1.6-0.3,3.2,0.3,4.7s1.6,2.8,3.1,4c1.4,1.1,2.8,1.9,4.4,2.2
			c1.6,0.3,3,0.2,4.3-0.3c1.4-0.6,2.7-1.6,4-3.2c1.1-1.3,1.8-2.5,2.3-3.7s0.8-2.7,1-4.6l-5.7-4.7l-5.3,6.4l2.8,2.3l2.3-2.8l1.3,1
			c-0.1,0.8-0.3,1.5-0.5,2s-0.5,1-0.9,1.5c-0.8,1-1.7,1.5-2.8,1.5s-2.3-0.5-3.8-1.7c-1.4-1.1-2.1-2.2-2.3-3.3
			c-0.2-1.1,0.1-2,0.8-2.9c0.5-0.6,1-1,1.6-1.2c0.6-0.2,1.2-0.1,1.8,0.1l2.6-4.6c-1.1-0.5-2.1-0.7-3-0.7c-1,0-1.9,0.3-2.7,0.8
			C427.2,423.5,426.1,424.5,424.9,425.9z"/>
		<polygon class="st1" points="429.9,420.5 442,419.7 448.3,423.3 451,418.7 444.7,415.1 439.4,404.2 436.4,409.3 439.7,415.3 
			432.9,415.4 		"/>
		<path class="st1" d="M344.9,489.5c-71.5,0-129.5-58-129.5-129.5s58-129.5,129.5-129.5c43.1,0,81.2,21,104.8,53.4h2.5l0,0
			c-23.8-33.5-63-55.4-107.3-55.4c-72.6,0-131.5,58.9-131.5,131.5s58.9,131.5,131.5,131.5c62.9,0,115.5-44.2,128.5-103.3h-2
			C458.4,446.1,406.8,489.5,344.9,489.5z"/>
	</g>
</g>
</svg>
