<?xml version="1.0" standalone="no"?>
<!DOCTYPE svg PUBLIC "-//W3C//DTD SVG 1.1//EN" "http://www.w3.org/Graphics/SVG/1.1/DTD/svg11.dtd" >
<svg>
<metadata>
Created by FontForge 20090914 at Mon Oct 19 07:28:24 2015
 By www-data
Typeface &#194;&#169; (your company). 2015. All Rights Reserved
</metadata>
<defs>
<font id="water-Bold" horiz-adv-x="1400" >
  <font-face 
    font-family="water"
    font-weight="700"
    font-stretch="normal"
    units-per-em="2048"
    panose-1="2 0 8 0 0 0 0 0 0 0"
    ascent="1638"
    descent="-410"
    bbox="-2.00684 -3.55477 1399 1419.42"
    underline-thickness="150"
    underline-position="-142"
    unicode-range="U+0041-U+A0019"
  />
<missing-glyph horiz-adv-x="1024" 
d="M102 0v1092h820v-1092h-820zM204 102h616v888h-616v-888z" />
    <glyph glyph-name=".notdef" horiz-adv-x="1024" 
d="M102 0v1092h820v-1092h-820zM204 102h616v888h-616v-888z" />
    <glyph glyph-name="A" unicode="A" horiz-adv-x="1540" 
 />
    <glyph glyph-name="B" unicode="B" horiz-adv-x="1219" 
 />
    <glyph glyph-name="C" unicode="C" horiz-adv-x="1399" 
 />
    <glyph glyph-name="D" unicode="D" horiz-adv-x="1518" 
 />
    <glyph glyph-name="E" unicode="E" horiz-adv-x="1151" 
 />
    <glyph glyph-name="F" unicode="F" horiz-adv-x="1079" 
 />
    <glyph glyph-name="G" unicode="G" horiz-adv-x="1401" 
 />
    <glyph glyph-name="H" unicode="H" horiz-adv-x="1579" 
 />
    <glyph glyph-name="I" unicode="I" horiz-adv-x="657" 
 />
    <glyph glyph-name="J" unicode="J" horiz-adv-x="657" 
 />
    <glyph glyph-name="K" unicode="K" horiz-adv-x="1382" 
 />
    <glyph glyph-name="L" unicode="L" horiz-adv-x="1128" 
 />
    <glyph glyph-name="M" unicode="M" horiz-adv-x="1798" 
 />
    <glyph glyph-name="N" unicode="N" horiz-adv-x="1554" 
 />
    <glyph glyph-name="O" unicode="O" horiz-adv-x="1614" 
 />
    <glyph glyph-name="P" unicode="P" horiz-adv-x="1120" 
 />
    <glyph glyph-name="Q" unicode="Q" horiz-adv-x="1614" 
 />
    <glyph glyph-name="R" unicode="R" horiz-adv-x="1283" 
 />
    <glyph glyph-name="S" unicode="S" horiz-adv-x="1085" 
 />
    <glyph glyph-name="T" unicode="T" horiz-adv-x="1350" 
 />
    <glyph glyph-name="U" unicode="U" horiz-adv-x="1501" 
 />
    <glyph glyph-name="V" unicode="V" horiz-adv-x="1456" 
 />
    <glyph glyph-name="W" unicode="W" horiz-adv-x="2030" 
 />
    <glyph glyph-name="X" unicode="X" horiz-adv-x="1350" 
 />
    <glyph glyph-name="Y" unicode="Y" horiz-adv-x="1233" 
 />
    <glyph glyph-name="Z" unicode="Z" horiz-adv-x="1124" 
 />
    <glyph glyph-name="a" unicode="a" horiz-adv-x="922" 
 />
    <glyph glyph-name="b" unicode="b" horiz-adv-x="995" 
 />
    <glyph glyph-name="c" unicode="c" horiz-adv-x="905" 
 />
    <glyph glyph-name="d" unicode="d" horiz-adv-x="1040" 
 />
    <glyph glyph-name="e" unicode="e" horiz-adv-x="909" 
 />
    <glyph glyph-name="f" unicode="f" horiz-adv-x="559" 
 />
    <glyph glyph-name="g" unicode="g" horiz-adv-x="899" 
 />
    <glyph glyph-name="h" unicode="h" horiz-adv-x="1104" 
 />
    <glyph glyph-name="i" unicode="i" horiz-adv-x="514" 
 />
    <glyph glyph-name="j" unicode="j" horiz-adv-x="510" 
 />
    <glyph glyph-name="k" unicode="k" horiz-adv-x="1026" 
 />
    <glyph glyph-name="l" unicode="l" horiz-adv-x="522" 
 />
    <glyph glyph-name="m" unicode="m" horiz-adv-x="1569" 
 />
    <glyph glyph-name="n" unicode="n" horiz-adv-x="1108" 
 />
    <glyph glyph-name="o" unicode="o" horiz-adv-x="1010" 
 />
    <glyph glyph-name="p" unicode="p" horiz-adv-x="1010" 
 />
    <glyph glyph-name="q" unicode="q" horiz-adv-x="1024" 
 />
    <glyph glyph-name="r" unicode="r" horiz-adv-x="692" 
 />
    <glyph glyph-name="s" unicode="s" horiz-adv-x="702" 
 />
    <glyph glyph-name="t" unicode="t" horiz-adv-x="674" 
 />
    <glyph glyph-name="u" unicode="u" horiz-adv-x="1059" 
 />
    <glyph glyph-name="v" unicode="v" horiz-adv-x="993" 
 />
    <glyph glyph-name="w" unicode="w" horiz-adv-x="1415" 
 />
    <glyph glyph-name="x" unicode="x" horiz-adv-x="1010" 
 />
    <glyph glyph-name="y" unicode="y" horiz-adv-x="868" 
 />
    <glyph glyph-name="z" unicode="z" horiz-adv-x="727" 
 />
    <glyph glyph-name="uA0001" unicode="&#xa0001;" horiz-adv-x="1401" 
d="M652 463l-220.002 0.00195312l327 377c0 7.33301 -0.333008 13.666 -1 18.999c-1.33301 11.333 -2.66602 14.666 -3.99902 9.99902c-5.33301 -14 -12.666 -105 -21.999 -273h220c-50.667 -56 -124.667 -143 -222 -261l-133 -159zM1399 586.002l-730 672l-668 -672h240
v-583h874v583h284z" />
    <glyph glyph-name="uA0002" unicode="&#xa0002;" 
d="M1195 469c-49.333 -40 -99 -65.333 -149 -76c-50 -10 -103 -6.66699 -159 10c-54 18 -115.333 49.667 -184 95l-55 36l-54 37c-144 96.667 -271.667 75.334 -383 -63.999c-27.333 -34.667 -52.666 -53.334 -75.999 -56.001c-26.667 -4 -53.334 11.667 -80.001 47l-6 5
c-3.33301 5.33301 -6 10 -8 14c-6 16.667 -1.33301 37.667 14 63c54 71.333 105 126 153 164c49.333 40 99.333 66 150 78c50 10 103.333 6 160 -12c55.333 -16.667 117 -47.667 185 -93l54 -36c26 -18 44 -31 54 -39c144 -96 271.667 -74.667 383 64c28 34.667 54 54 78 58
c26.667 5.33301 52.667 -10.667 78 -48c8.66699 -12 13.334 -20.667 14.001 -26c2 -12.667 -2.66699 -31 -14 -55c-54.667 -72.667 -106.334 -128 -155.001 -166zM1195 70c-49.333 -36 -99 -58.667 -149 -68s-103 -5.66602 -159 11.001c-54 14.667 -115.333 42.667 -184 84
l-55 33l-54 33c-144 88.667 -271.667 70 -383 -56c-27.333 -32.667 -52.666 -50 -75.999 -52c-26.667 -4 -53.334 10 -80.001 42l-6 7c-3.33301 3.33301 -6 7.33301 -8 12c-6 14 -1.33301 32.667 14 56c54 64 105 113.667 153 149c49.333 37.333 99.333 60.666 150 69.999
c50 9.33301 103.333 5.66602 160 -11.001c55.333 -15.333 117 -43.333 185 -84l54 -33c26 -16.667 44 -27.667 54 -33c144 -88 271.667 -69.333 383 56c28 32.667 54 50 78 52c26.667 4.66699 52.667 -10 78 -44c8.66699 -10 13.334 -17.333 14.001 -22
c2 -12 -2.66699 -29 -14 -51c-54.667 -65.333 -106.334 -115.666 -155.001 -150.999zM1197 892c-50.667 -39.333 -100.667 -64.001 -150 -74.001c-50 -10.667 -103 -7 -159 11c-54.667 16.667 -116.334 47.334 -185.001 92.001c-12 8.66699 -30 20.667 -54 36l-54 36
c-144.667 96.667 -272 76.334 -382 -60.999c-28.667 -34 -54.334 -53 -77.001 -57c-27.333 -4 -54 12 -80 48c0 -1.33301 -2.33301 0.333984 -7 5.00098c-3.33301 4 -5.66602 8.66699 -6.99902 14c-5.33301 15.333 -0.666016 35.666 14.001 60.999
c54 71.333 105.333 126 154 164c49.333 39.333 99 64 149 74c50.667 10 103.667 7 159 -9c55.333 -18 117.666 -49.333 186.999 -94c12 -8.66699 30 -20.667 54 -36c24.667 -18 42.667 -30 54 -36c144 -95.333 271.333 -74.333 382 63c28.667 34 54.334 53 77.001 57
c27.333 4 54 -12 80 -48c8 -12.667 12.667 -21.334 14 -26.001c2 -13.333 -2.66699 -32 -14 -56c-55.333 -71.333 -107 -126 -155 -164z" />
    <glyph glyph-name="uA0003" unicode="&#xa0003;" 
d="M1116 412c-12 4 -31.667 12.3311 -59 24.998c-26 12.667 -46 22 -60 28c-48.667 22 -92.667 20.667 -132 -4l-25 -18c-2.66699 -2 -7.33398 -5 -14.001 -9v182h-203v-178c-37.333 14 -58 21.667 -62 23c-14.667 4.66699 -35 10.334 -61 17.001
c-36 7.33301 -70.333 2 -103 -16c-4.66699 -2.66699 -31 -19.334 -79 -50.001c-2 -2.66699 -9.66699 -7.66699 -23 -15c-0.666992 10 -1 14.333 -1 13v311c0 8 3.33301 14 10 18l206 192l207 191c0 0.666992 1.33301 1.66699 4 3
c0.666992 0.666992 1.66699 1.33398 3 2.00098l89 -84c38.667 -33.333 69.334 -60.666 92.001 -81.999l60 -56l58 -54l120 -109c6 -6 9 -12.667 9 -20c0.666992 -52 1 -156 1 -312c0 -1.33301 -0.333008 -5.33301 -1 -12c-22.667 8 -34.667 12.667 -36 14zM669 1150
l-217.999 -204.999l-219 -205c-9.33301 -9.33301 -21.666 -14 -36.999 -14c-14.667 0 -27 4.66699 -37 14c-10.667 9.33301 -16.334 20.666 -17.001 33.999c-1.33301 13.333 3.33398 25.666 14.001 36.999c0.666992 0.666992 2 2.33398 4 5.00098s3.66699 4 5 4l257 242
l259 241c29.333 26 58.666 26 87.999 0l253 -238c172.667 -160.667 258 -240 256 -238c11.333 -10 18.666 -17.333 21.999 -22c6.66699 -8.66699 9.33398 -18 8.00098 -28c-0.666992 -20 -8.66699 -34 -24 -42c-13.333 -8 -30.333 -10.667 -51 -8c-2 0 -4 1.33301 -6 4
c-0.666992 0 -1.33398 1.33301 -2.00098 4c-2 0.666992 -3 1.66699 -3 3l-242 224l-242 225l-16 12c-34.667 -34 -52 -50.333 -52 -49zM1399 105.999c-28 -3.33301 -61.001 -17.3311 -99.001 -41.998c-16.667 -12.667 -28 -20.334 -34 -23.001
c-14 -10.667 -27.333 -19.667 -40 -27c-40 -23.333 -79 -23.333 -117 0c-10.667 6 -23.334 14.333 -38.001 25c-22 13.333 -34.333 21 -37 23l-38 25c-40.667 24.667 -81.667 23.667 -123 -3l-78 -49c-60.667 -48 -122 -48.667 -184 -2c-9.33301 7.33301 -34 23.333 -74 48
c-45.333 30 -90.666 30 -135.999 0c-11.333 -6.66699 -27.666 -17.334 -48.999 -32.001c-18 -12.667 -31.667 -21.667 -41 -27c-47.333 -32 -95 -32 -143 0c-25.333 16.667 -41 27.334 -47 32.001c-25.333 17.333 -43.333 28.333 -54 33
c-19.333 11.333 -38.333 17.666 -57 18.999v114c22 0 45.667 -8 71 -24c30.667 -18.667 56.667 -36.334 78 -53.001c54 -39.333 108 -39.333 162 0l35 25c16 11.333 27.333 19 34 23c52.667 38 105 38.667 157 2l38 -25c16 -10.667 28.667 -19.667 38 -27
c54 -36 108 -35.333 162 2c7.33301 6 19.666 14.667 36.999 26l37 25c50.667 34.667 101.334 34.667 152.001 0l37 -25c16 -10 28.667 -18.667 38 -26c54 -39.333 107.333 -39.333 160 0c22.667 16.667 48.667 34.334 78 53.001c26.667 16 51.667 24 75 24v-114z
M1399 324.001c-20 -1.33301 -39.6689 -7.33984 -59.002 -18.0068c-11.333 -5.33301 -29.333 -16.666 -54 -33.999s-46 -31.333 -64 -42c-37.333 -21.333 -73.666 -21.333 -108.999 0c-10 6 -22.667 14.333 -38 25c-20.667 13.333 -33.334 21.666 -38.001 24.999
c-27.333 16.667 -45.333 27 -54 31c-32 18 -64 18 -96 0c-8.66699 -4 -31 -17.333 -67 -40c-44 -28 -65.667 -42 -65 -42c-34 -19.333 -68 -20 -102 -2c-2.66699 2 -26.334 17 -71.001 45c-37.333 24 -57 36 -59 36c-36 20.667 -72 20.667 -108 0
c-9.33301 -5.33301 -21 -12.666 -35 -21.999l-35 -25c-30.667 -17.333 -50 -28.666 -58 -33.999c-32.667 -16.667 -64 -16.667 -94 0c-18.667 10.667 -45 27.334 -79 50.001c-22.667 15.333 -39.334 25 -50.001 29c-18.667 10.667 -37 16.667 -55 18v121
c34.667 -12.667 52.667 -20 54 -22c6.66699 -2 29.667 -16 69 -42c16 -10.667 25.667 -17 29 -19c52.667 -39.333 106.334 -38.666 161.001 2.00098c8.66699 5.33301 20 13 34 23c18.667 12.667 30.334 21 35.001 25c52 36.667 103.667 37.334 155 2.00098
c5.33301 -5.33301 17 -13.666 35 -24.999l37 -24c57.333 -42 114.333 -42 171 0c9.33301 6.66699 21.333 14.667 36 24c18.667 12.667 30.334 21 35.001 25c50.667 35.333 101.667 35.333 153 0c6.66699 -6 19 -15 37 -27c16.667 -11.333 29.334 -19.666 38.001 -24.999
c52.667 -38 105.334 -38 158.001 0l83 55c23.333 16.667 46.666 25 69.999 25v-118zM1166 1020.99c-16 12 -38 29.999 -66 53.999l-101 81c-6 4.66699 -9 9.33398 -9 14.001v134h176v-283z" />
    <glyph glyph-name="uA0004" unicode="&#xa0004;" 
d="M406 855c-6 -4 -11.002 -6.66504 -15.002 -7.99805l-109 -54c-16.667 -10 -31.334 -21.667 -44.001 -35c-10 -12 -15.667 -25 -17 -39c-2 -13.333 0 -27 6 -41c12 -26.667 31.667 -40 59 -40h381h190h190c24 0 46.333 -5 67 -15c21.333 -9.33301 40 -22.333 56 -39
c16 -18 28.667 -38.333 38 -61c9.33301 -23.333 14 -48 14 -74s-4.33301 -51.333 -13 -76c-8 -24 -20.333 -44.667 -37 -62c-15.333 -18 -33.666 -32 -54.999 -42c-21.333 -9.33301 -44 -14.666 -68 -15.999h-210h-104h-105h-349c-16 0 -29.333 -5.33301 -40 -16
s-16 -24 -16 -40c0 -16.667 5.33301 -30.334 16 -41.001s24 -16 40 -16h867c22 0 39 -8 51 -24c12.667 -14.667 17.334 -34 14.001 -58c-2.66699 -15.333 -9.66699 -28 -21 -38c-12 -10.667 -26 -16 -42 -16h-223h-324h-324c-61.333 0 -109.333 26.667 -144 80
c-19.333 32 -30 64.333 -32 97c-3.33301 34.667 3 69 19 103c16 34.667 37.333 60.667 64 78c26 18 56.667 27 92 27c84.667 0.666992 187.667 1 309 1c28 0 79.667 -0.333008 155 -1h156h152c20.667 0 35.334 10.667 44.001 32c10 18.667 8.66699 38 -4 58
c-8.66699 13.333 -21 20 -37 20h-694c-58.667 0 -96 2 -112 6c-37.333 9.33301 -68 26.666 -92 51.999c-23.333 24.667 -39.666 57.667 -48.999 99c-10.667 41.333 -10.334 80.666 0.999023 117.999c10.667 35.333 30.667 67.666 60 96.999c16 14.667 34 27.334 54 38.001
c12 7.33301 58 31 138 71c21.333 -54 37 -95.667 47 -125zM644.998 929.002l7.00098 -26.9971c2 -6.66699 2 -12 0 -16c-2 -3.33301 -5.66699 -7.33301 -11 -12c-5.33301 -2.66699 -14 -6.33398 -26 -11.001l-114 -49c-10.667 -4.66699 -20 -5.66699 -28 -3
c-6.66699 2.66699 -13 10 -19 22l-92 217c-4 12.667 -4.66699 22.334 -2 29.001c2.66699 8 10 14.333 22 19l128 55c12 4.66699 21.667 5.66699 29 3s13.333 -10 18 -22c2 -6.66699 4.66699 -10.667 8 -12c3.33301 -0.666992 8 0 14 2l170 55
c12.667 3.33301 22.334 3.66602 29.001 0.999023c6 -2.66699 12 -10.334 18 -23.001c14 -34.667 26 -63 36 -85c4 -11.333 5.33301 -20.333 4 -27c-2.66699 -6.66699 -9.33398 -13 -20.001 -19l-156 -85c-2.66699 -0.666992 -5.33398 -2 -8.00098 -4
c-4 -2.66699 -6.33301 -4.33398 -7 -5.00098v-3zM1160 1020c-11.333 -8 -24 -12 -38 -12c-15.333 0 -28 5 -38 15s-15 21.667 -15 35c0 15.333 5 28 15 38s22.667 15 38 15c14 0 26.667 -5 38 -15c8.66699 -10 13 -22.667 13 -38c0 -14 -4.33301 -26.667 -13 -38zM1118 1280
c-10 10.667 -14.999 22.667 -14.999 36c0 15.333 5 28 15 38s22.667 15 38 15c13.333 0 26 -4.66699 38 -14c10 -10 15 -22.667 15 -38c0 -14 -5 -26.333 -15 -37c-10.667 -10 -23.334 -15 -38.001 -15c-15.333 0 -28 5 -38 15zM1088 1161
c-10.667 -9.33301 -23.334 -14 -38.001 -14c-15.333 -0.666992 -28 5 -38 17c-10 10 -15 22 -15 36c0 14.667 5 27 15 37c11.333 10 24 15 38 15c14.667 0 27.334 -5 38.001 -15c10 -10 15 -22.667 15 -38s-5 -28 -15 -38zM981 1018
c-10.667 -10 -23.668 -14.667 -39.001 -14c-13.333 0 -25 5 -35 15c-9.33301 10.667 -14 23.334 -14 38.001c0 14 5.33301 26.667 16 38c10.667 10 23.334 14.333 38.001 13c15.333 0 27.333 -5.33301 36 -16c10 -10.667 14.667 -23.334 14 -38.001
c0 -14.667 -5.33301 -26.667 -16 -36zM1264 1229c10 -10.667 15 -23 15 -37c0 -15.333 -5 -28 -15 -38c-10.667 -10 -23.334 -15 -38.001 -15c-14 0 -26 5 -36 15s-15 21.667 -15 35c0 15.333 5 28 15 38c10 10.667 22 16 36 16c14.667 0 27.334 -4.66699 38.001 -14z
M1336 1015c-9.33301 -11.333 -21.668 -17 -37.001 -17c-14.667 0 -27 5 -37 15c-11.333 10 -17 22.667 -17 38c0.666992 14.667 6.33398 27 17.001 37c8.66699 9.33301 20.667 14.333 36 15c14 0 26.667 -5 38 -15c10 -10 15 -22.333 15 -37c0 -14 -5 -26 -15 -36z" />
    <glyph glyph-name="uA0005" unicode="&#xa0005;" 
d="M1270 736h-85v-119h85v119zM1141 736h-84v-119h84v119zM591 631l0.000976562 171.001c0 12 -2 20.333 -6 25c-4.66699 4.66699 -12.667 7 -24 7h-119c-12.667 0 -21.334 -2.33301 -26.001 -7c-6 -4.66699 -9 -13.334 -9 -26.001v-156c0 -1.33301 0.666992 -6 2 -14h182z
M97.001 550.001v79h54v280h776v-130h385v-229h-12h-175c-7.33301 0 -13.666 2.66699 -18.999 8l-85 82c-4 4 -6.33301 10.333 -7 19v77h-87v-61c0 -2 2 -4.33301 6 -7l195 -190c4 -4 10.333 -6 19 -6h177h17v-68h-16c-116 0 -186 0.666992 -210 2
c-6.66699 0 -13.334 2.33301 -20.001 7l-131 127c-7.33301 6.66699 -16.333 10 -27 10h-407h-408h-25zM12.001 930.001c-0.666992 19.333 1.33203 33.6689 5.99902 43.002c6.66699 8 18.667 14 36 18c23.333 7.33301 45 15.666 65 24.999c76.667 38 143.334 86 200.001 144
c30 30 49.333 62.333 58 97c4 16.667 11.333 28.334 22 35.001c8.66699 7.33301 21.667 11 39 11h182c18 0 31.667 -3.66699 41 -11c10.667 -8 17.667 -21.333 21 -40c8 -28.667 21.667 -53.334 41 -74.001c74 -80.667 160 -140.334 258 -179.001
c7.33301 -2 15 -4.66699 23 -8c18 -4 30 -9.66699 36 -17c4.66699 -9.33301 6.66699 -24 6 -44h-1034zM1211 190.004c-18.667 -12 -37.6689 -18.001 -57.002 -18.001c-44 -1.33301 -84 20.667 -120 66c-69.333 -85.333 -143 -87.333 -221 -6
c-74.667 -81.333 -149.667 -81.333 -225 0c-31.333 -41.333 -68.333 -61.333 -111 -60c-40 0 -77 22 -111 66c-70 -85.333 -144 -87.333 -222 -6c-29.333 -30.667 -56.333 -48.667 -81 -54c-11.333 -4 -23.666 -6 -36.999 -6c-6 0 -11 4 -15 12c-4 5.33301 -6 13.333 -6 24
c-2 10 -0.666992 18.667 4 26c4 7.33301 9.66699 11 17 11c35.333 0 68.333 21.667 99 65c6 8.66699 11.667 13 17 13s11.333 -4.33301 18 -13c28 -27.333 48.667 -45.333 62 -54c12.667 -9.33301 25.667 -13 39 -11c13.333 1.33301 26 7 38 17
c14.667 13.333 29 30.333 43 51c10 10.667 18.333 16 25 16c7.33301 0 14.666 -6.33301 21.999 -19c30 -50.667 66.667 -71.667 110 -63c28 6 50.667 27 68 63c6.66699 12.667 14.334 19 23.001 19s16.334 -6.33301 23.001 -19c15.333 -32 36.666 -52.333 63.999 -61
c25.333 -8.66699 49.666 -3.66699 72.999 15c8.66699 6 22.667 21.333 42 46c8 8.66699 14.333 13 19 13c4.66699 -1.33301 11.334 -5.66602 20.001 -12.999c22.667 -24.667 42 -42.667 58 -54c27.333 -17.333 54.333 -14.666 81 8.00098c13.333 12 27.333 28.333 42 49
c8.66699 10.667 17 16 25 16c6.66699 0 14.334 -6.33301 23.001 -19c28.667 -49.333 64.334 -70.333 107.001 -63c27.333 6 50 26.333 68 61c6.66699 14 15 21 25 21c7.33301 0 15 -7 23 -21c19.333 -40.667 47.666 -61.667 84.999 -63c14 0 22.333 -8 25 -24
c4 -13.333 3 -24.333 -3 -33c-4.66699 -10.667 -12 -16 -22 -16c-35.333 -1.33301 -67.666 14 -96.999 46c-2 2 -4 4.33301 -6 7c-2.66699 4.66699 -4.33398 7.66699 -5.00098 9c-14.667 -18.667 -31 -33.334 -49 -44.001zM920.998 520.003l0.000976562 -207
c-36.667 2 -72.334 14 -107.001 36c-2 1.33301 -3 4.33301 -3 9v159c0 0.666992 0.666992 1.66699 2 3h108zM258.999 520.003v-206.001c-22 3.33301 -44 11.333 -66 24c-8 4.66699 -20 12.334 -36 23.001c-4 2.66699 -6 5.66699 -6 9c0 16 0.666992 65 2 147l2 3h104z
M1211 23.002c-18.667 -11.333 -37.6689 -16.9961 -57.002 -16.9961c-44 -2 -84 19.667 -120 65c-69.333 -86 -143 -88 -221 -6c-74.667 -82 -149.667 -82 -225 0c-31.333 -41.333 -68.333 -61 -111 -59c-40 1.33301 -77 23 -111 65c-70 -86 -144 -88 -222 -6
c-29.333 -30.667 -56.333 -49 -81 -55c-11.333 -2.66699 -23.666 -4 -36.999 -4c-6 1.33301 -11 5 -15 11c-4 5.33301 -6 13.333 -6 24c-2 10 -0.666992 18.667 4 26c4 7.33301 9.66699 11 17 11c35.333 0 68.333 22 99 66c6 8.66699 11.667 13 17 13
s11.333 -3.66699 18 -11c28 -29.333 48.667 -48.333 62 -57c12.667 -8.66699 25.667 -12.334 39 -11.001s26 8 38 20c14.667 11.333 29 27.333 43 48c10 11.333 18.333 17 25 17c7.33301 0 14.666 -6.33301 21.999 -19c30 -51.333 66.667 -72.666 110 -63.999
c28 6 50.667 27.333 68 64c6.66699 12.667 14.334 19.667 23.001 21c8.66699 0 16.334 -7 23.001 -21c15.333 -32.667 36.666 -53.334 63.999 -62.001c25.333 -8.66699 49.666 -3.33398 72.999 15.999c8.66699 7.33301 22.667 22.666 42 45.999c8 8.66699 14.333 13 19 13
s11.334 -4.33301 20.001 -13c22.667 -24.667 42 -43 58 -55c27.333 -17.333 54.333 -14.333 81 9c13.333 11.333 27.333 27.333 42 48c8.66699 11.333 17 17 25 17c6.66699 0 14.334 -6.33301 23.001 -19c28.667 -50 64.334 -71.333 107.001 -64c27.333 6 50 26.333 68 61
c6.66699 14.667 15 22.667 25 24c7.33301 0 15 -8 23 -24c19.333 -39.333 47.666 -60.333 84.999 -63c14 0 22.333 -8 25 -24c4 -13.333 3 -24.333 -3 -33c-4.66699 -10 -12 -15 -22 -15c-35.333 0 -67.666 15.333 -96.999 46c-2 1.33301 -4 3.33301 -6 6
c-2.66699 4.66699 -4.33398 7.66699 -5.00098 9c-14.667 -18.667 -31 -33.334 -49 -44.001z" />
    <glyph glyph-name="uA0006" unicode="&#xa0006;" 
d="M4 1193h146.001h1247v-1029h-174v39c-0.666992 84 -3 136 -7 156c-36.667 178 -140.334 298 -311.001 360c-43.333 16.667 -90.333 25 -141 25c-87.333 0 -142 -1 -164 -3c-146 -12.667 -261.667 -81 -347 -205c-52 -77.333 -78 -165 -78 -263v-109h-171v1029z
M208.001 164l0.000976562 84.001c49.333 3.33301 90.666 31.666 123.999 84.999c36.667 -56.667 78 -85 124 -85c46.667 0 87.667 28.333 123 85c19.333 -29.333 40.333 -51 63 -65c21.333 -13.333 43.333 -20 66 -20c22 1.33301 43.667 9.33301 65 24
c20 13.333 38.333 33.666 55 60.999c18.667 -29.333 39.667 -51 63 -65c20.667 -13.333 42.667 -20 66 -20c22 1.33301 43 9.33301 63 24c20.667 14.667 39.667 35 57 61c34.667 -53.333 75.334 -81.666 122.001 -84.999v-84c-44.667 0 -85.334 27.333 -122.001 82
c-18 -27.333 -38 -48.333 -60 -63c-21.333 -12.667 -43.333 -19 -66 -19c-23.333 0 -45 7 -65 21c-22 14.667 -41.333 35 -58 61c-18 -27.333 -37.333 -48.333 -58 -63c-21.333 -12.667 -43 -19 -65 -19c-22.667 0 -44.667 7 -66 21c-22 13.333 -41.333 34.333 -58 63
c-38 -56 -79.667 -84 -125 -84c-46 0 -87.333 28 -124 84c-36.667 -56 -78 -84 -124 -84zM520.002 36.001c-20.667 -11.333 -42 -16.999 -64 -16.999s-43.333 6 -64 18c-20.667 11.333 -39.334 28 -56.001 50c-35.333 -30.667 -54 -46.667 -56 -48
c-19.333 -13.333 -42.333 -20 -69 -20v70c35.333 9.33301 58.333 17 69 23c10 6.66699 28 23.334 54 50.001c35.333 -48 76.666 -72 123.999 -72c46 0 86.667 24 122 72c18.667 -24.667 39 -42.334 61 -53.001c20.667 -12.667 42.667 -19 66 -19
c22 1.33301 43.333 8.33301 64 21c20.667 12 39.334 29 56.001 51c36.667 -46.667 78 -70.667 124 -72c46 0 87 24.667 123 74c34.667 -46.667 75.334 -71.334 122.001 -74.001v-71c-45.333 1.33301 -86 25 -122 71c-36 -47.333 -77 -71 -123 -71s-87.333 23.667 -124 71
c-17.333 -22.667 -36.666 -40.334 -57.999 -53.001c-20.667 -12 -42.334 -18 -65.001 -18c-22 0 -43.667 6 -65 18c-20.667 12.667 -39.667 30.334 -57 53.001c-19.333 -24 -40 -42 -62 -54z" />
    <glyph glyph-name="uA0007" unicode="&#xa0007;" 
d="M128 670l-0.00390625 -6.99902c6.66699 -108 40.334 -205.667 101.001 -293c0.666992 -2 3 -3.66699 7 -5c4.66699 -0.666992 8 -1 10 -1c126 -2 229.667 -2 311 0c6.66699 0 12 -1.33301 16 -4c2.66699 -2 5 -6.33301 7 -13c7.33301 -26.667 22 -48 44 -64
s46.667 -24 74 -24s51.666 7.66699 72.999 23c22.667 16 38.334 37 47.001 63c0 1.33301 1.66699 6.66602 5 15.999h25h304c8.66699 0 15.334 4.33301 20.001 13c46 68.667 76.333 143 91 223c0 3.33301 2.66699 27.666 8 72.999h-56v51h55c-2 72 -18 141.333 -48 208
c-28.667 64.667 -68.667 122.334 -120 173.001c-50 50.667 -107.333 89.667 -172 117c-67.333 30 -135.666 45.667 -204.999 47v-78h-51v78c-73.333 -2 -144 -18.333 -212 -49c-64.667 -30 -121.667 -70.667 -171 -122c-50 -50 -88.667 -107 -116 -171
c-29.333 -66 -44.666 -133.667 -45.999 -203h64v-51h-65zM425.996 57.001c-83.333 35.333 -157.333 85.002 -222 149.002c-63.333 64.667 -113 138.667 -149 222c-34.667 87.333 -51.667 178.666 -51 273.999c0 93.333 19 182.666 57 267.999
c35.333 82.667 85 156.334 149 221.001c64.667 63.333 138.667 112 222 146c86 36.667 175.667 54.667 269 54c94.667 0 185.334 -19 272.001 -57c83.333 -35.333 156.666 -85 219.999 -149c64.667 -64 114 -137.667 148 -221c37.333 -86.667 55.333 -176.667 54 -270
c0 -94.667 -19 -185.334 -57 -272.001c-35.333 -82 -84.666 -155.333 -147.999 -220c-64.667 -64.667 -138.667 -114 -222 -148c-86 -37.333 -176 -55.333 -270 -54c-94.667 0 -185.334 19 -272.001 57zM633.996 471.003c4 2.66699 6.32812 5.99902 6.99512 9.99902
c1.33301 2 2.33301 5.66699 3 11c8.66699 180 15 315 19 405c0.666992 24 2.33398 53 5.00098 87c0 4.66699 1 19 3 43c1.33301 18 2.33301 32.667 3 44c0 6.66699 2.33301 11.334 7 14.001c4 4 9.66699 6 17 6c8.66699 0 15.334 -2 20.001 -6
c4.66699 -2.66699 7 -7.33398 7 -14.001l31 -584c0 -5.33301 3 -10.333 9 -15c18.667 -16 31.334 -35.333 38.001 -58c6 -24 4.33301 -47 -5 -69c-8.66699 -22 -24 -39.333 -46 -52c-20.667 -11.333 -42 -15.666 -64 -12.999c-25.333 4 -46.666 14 -63.999 30
c-18 18 -28.333 39.333 -31 64v6v8c0.666992 35.333 14.334 63 41.001 83z" />
    <glyph glyph-name="uA0008" unicode="&#xa0008;" 
d="M1393 911c-0.666992 -4.66699 -1.00391 -8.00098 -1.00391 -10.001c-6 -10 -14.333 -18.667 -25 -26c-7.33301 -4.66699 -17.666 -10 -30.999 -16l-130 -50c-3.33301 -2 -24.666 -10.667 -63.999 -26l-64 -26l-258 -102c-81.333 -31.333 -162.666 -29.333 -243.999 6
l-145 66c-10.667 5.33301 -34.667 16.333 -72 33l-72 34l-217 100c-13.333 6.66699 -23.333 12.667 -30 18c-10.667 8 -18 17.667 -22 29v7v9c6 10.667 14.333 19.667 25 27c7.33301 4.66699 17.666 10 30.999 16l128 52c54.667 20.667 97.334 37.334 128.001 50.001
l256 102c51.333 20 110 25.333 176 16c18.667 -2 38.334 -7.33301 59.001 -16c8 -3.33301 26.667 -12 56 -26l466 -214c26 -11.333 42.667 -26.333 50 -45v-8zM1384 594.999c-5.33301 -10.667 -13.335 -20.002 -24.002 -28.002c-8 -4.66699 -19 -9.66699 -33 -15l-128 -52
c-60 -24 -102.667 -40.667 -128 -50l-255 -102c-83.333 -32.667 -166.666 -31 -249.999 5l-69 32l-33 16l-35 16l-185 84l-186 87c-11.333 5.33301 -20.666 11 -27.999 17c-10 7.33301 -16.667 16.333 -20 27v7v9c4.66699 9.33301 11.667 18 21 26
c6.66699 4.66699 15.667 9.33398 27 14.001l45 19c20 7.33301 35 13 45 17c31.333 12.667 62.666 11.667 93.999 -3c17.333 -7.33301 42.333 -18.666 75 -33.999l75 -35l149 -67c102.667 -46 206 -49 310 -9l156 60c108 43.333 159.667 64 155 62
c26.667 11.333 53.334 11.333 80.001 0c12.667 -4.66699 45.667 -20 99 -46c22 -9.33301 36.333 -23 43 -41v-16zM1323.99 243.997c-24 -8.66699 -103.334 -39.666 -238.001 -92.999l-237 -95c-56 -22 -96.333 -34 -121 -36c-65.333 -6 -122.333 2.66699 -171 26l-504 233
c-26 11.333 -43.333 26 -52 44c0 4 0.333008 10.333 1 19c10 17.333 27.333 30.666 52 39.999c10 4 25 9.66699 45 17l44 18c28.667 11.333 57.334 10.666 86.001 -2.00098c8 -4 58.333 -27.333 151 -70l153 -69c101.333 -45.333 204 -48.333 308 -9l156 61
c10 4.66699 35.667 15 77 31c31.333 12.667 57.333 22.667 78 30c29.333 12.667 58.333 12.334 87 -0.999023c8 -4 22.333 -10.667 43 -20l45 -20c24 -10.667 40.333 -25 49 -43v-9v-10c-8.66699 -17.333 -26 -31.333 -52 -42z" />
    <glyph glyph-name="uA0009" unicode="&#xa0009;" 
d="M1389 611c-2.66699 -4 -4 -6.66602 -4 -7.99902c-4 -17.333 -12 -32 -24 -44c-10.667 -10.667 -23.667 -18.334 -39 -23.001c-14.667 -4 -29.667 -4 -45 0c-15.333 4.66699 -30 13.334 -44 26.001l-183 184l-92 92l-94 93c-18 17.333 -45 45 -81 83l-85 85
c-5.33301 -6 -9 -10 -11 -12l-263 -261l-261 -262c-18.667 -18.667 -38.667 -29 -60 -31c-22.667 -0.666992 -43 6.66602 -61 21.999c-21.333 14.667 -33 34.667 -35 60c-2 24 5.33301 45.667 22 65c2 3.33301 6.33301 8.33301 13 15l632 631
c9.33301 10.667 17.333 16 24 16c6 0 14.333 -5.33301 25 -16l635 -634c14 -15.333 24.333 -34.333 31 -57v-24zM309 140.001c17.333 3.33301 26.668 5.00195 28.001 5.00195c13.333 6 24.333 12.333 33 19c23.333 17.333 46.333 26.666 69 27.999
c21.333 0 43 -8.66699 65 -26c1.33301 -1.33301 3 -2.33301 5 -3c2.66699 -2 4.33398 -4 5.00098 -6c18.667 -12.667 37 -19 55 -19c17.333 0 35 7.33301 53 22l33 20c26.667 14 53.667 14 81 0c8.66699 -4.66699 20.334 -11.334 35.001 -20.001
c36 -27.333 72 -27.333 108 0c12 6.66699 19 11 21 13c35.333 22 70.666 22 105.999 0c4 -2 8.33301 -4.33301 13 -7c6.66699 -6 11 -9.33301 13 -10c18.667 -12 36.667 -18 54 -18v68c0 2 -1 3.66699 -3 5c-2 2 -3.33301 3 -4 3c-12.667 0 -25.334 3.33301 -38.001 10
c-8 4 -19.667 11.333 -35 22c-34 25.333 -69.333 25.333 -106 0c-17.333 -12.667 -26 -18.667 -26 -18c-24.667 -15.333 -48.667 -19 -72 -11c-14.667 4.66699 -30.334 13.334 -47.001 26.001c-18.667 12.667 -37 19.667 -55 21c-18.667 1.33301 -37.667 -4 -57 -16
c-2 -2 -5.66699 -4.66699 -11 -8s-9 -6.33301 -11 -9c-20.667 -12.667 -40.667 -18.334 -60 -17.001c-20 0.666992 -40 9 -60 25c-22 18 -42.333 27 -61 27c-17.333 0 -38.333 -8.66699 -63 -26c-14 -8.66699 -24 -15 -30 -19c-13.333 -6 -26 -9 -38 -9v-72zM1086 383.003
c0 1.33301 -1.33594 2.66602 -4.00293 3.99902c-1.33301 2 -2.33301 3 -3 3c-20.667 0 -42 9.33301 -64 28c-22 15.333 -42.667 23 -62 23s-39.666 -8.66699 -60.999 -26c-24 -17.333 -46.333 -26 -67 -26c-21.333 0 -43.666 8.66699 -66.999 26
c-20.667 16.667 -40.667 25 -60 25s-40.333 -7.33301 -63 -22c-11.333 -8 -26.666 -16.333 -45.999 -25c-21.333 -8.66699 -42.333 -6.66699 -63 6c-5.33301 4 -11.666 8 -18.999 12c-9.33301 6.66699 -15 10.334 -17 11.001c-31.333 22.667 -63 24.667 -95 6
c-4.66699 -2.66699 -11 -7 -19 -13c-8.66699 -6 -15.334 -10 -20.001 -12c-16 -9.33301 -31 -14 -45 -14v-72c20 0 39.667 7.33301 59 22c28.667 22.667 56.334 31.667 83.001 27c16.667 -3.33301 36 -13.333 58 -30c20 -14.667 38.667 -22 56 -22
c18.667 0 37.667 7.33301 57 22c2.66699 2 4.66699 4 6 6c23.333 16 45.666 24 66.999 24s43.333 -8 66 -24c8.66699 -8 15.334 -13 20.001 -15c27.333 -17.333 55 -17.333 83 0c4 2 11.667 7 23 15c21.333 16 42.666 24 63.999 24s43.333 -8 66 -24
c12 -8.66699 19.333 -13.667 22 -15c4.66699 -2.66699 19.667 -8 45 -16v72zM738.999 987.003l40 -40l222 -223l222 -221c6.66699 -8 10 -18 10 -30v-220v-112v-111c0 -11.333 -2 -19.333 -6 -24c-2.66699 -4 -10.667 -6 -24 -6h-1009c-13.333 0 -22 2 -26 6
c-4.66699 3.33301 -7 12 -7 26v111v113v224c0 7.33301 2.33301 13.333 7 18l524 525l6 6z" />
    <glyph glyph-name="uA0010" unicode="&#xa0010;" 
d="M1393 777l-50.002 -34.001c-23.333 -16 -40.333 -28 -51 -36c-4 -4.66699 -10.333 -10 -19 -16l-51 61l-53 62c-10 -28.667 -22.667 -70.667 -38 -126c-5.33301 -14.667 -12.333 -36 -21 -64c-8 -27.333 -14.333 -48.333 -19 -63c-21.333 23.333 -45.666 38 -72.999 44
c-28.667 6 -55 3 -79 -9c-22.667 -8.66699 -41.667 -25.334 -57 -50.001c-8 -12.667 -17 -21 -27 -25c-12 -5.33301 -24.333 -5.33301 -37 0c-8 2.66699 -17 9.33398 -27 20.001c-10 8 -15.333 18 -16 30c-1.33301 8 0.333984 19 5.00098 33c10 30.667 21.667 68.667 35 114
c2.66699 8.66699 9 27.334 19 56.001l16 55c0 1.33301 1.66699 6.66602 5 15.999c-42 9.33301 -126 30.666 -252 63.999l-58 -188c-26 -88.667 -45.333 -152.667 -58 -192l-11 15c-25.333 42 -61.333 63 -108 63c-48.667 0 -85.667 -21 -111 -63
c-8.66699 -13.333 -21.334 -21.666 -38.001 -24.999c-15.333 -4 -29.666 -0.666992 -42.999 10c-3.33301 2.66699 -5.66602 5.33398 -6.99902 8.00098c-0.666992 4 -0.666992 8.33301 0 13l73 235c43.333 143.333 67.333 221 72 233l4 17l-80 -26
c-40.667 -15.333 -66.334 -24.333 -77.001 -27c-4 8.66699 -13.333 30.334 -28 65.001l-27 67c4.66699 2.66699 8 4.66699 10 6c43.333 13.333 106.666 34.666 189.999 63.999c84.667 30.667 147 52.667 187 66l378 134c4 0.666992 7.66699 0.666992 11 0
c2.66699 0 5.33398 -2 8.00098 -6l242 -288l243 -288l18 -16v-9zM1319 361.999c-26.667 24.667 -40.6631 37.999 -41.9961 39.999c-18.667 14 -35.334 24 -50.001 30c-30 15.333 -58.667 13.333 -86 -6c-6 -4 -13.333 -10 -22 -18c-12 -8.66699 -20 -15 -24 -19
c-34.667 -24 -56 -38.333 -64 -43c-29.333 -16 -59.333 -23 -90 -21c-30.667 2.66699 -59.334 14.334 -86.001 35.001l-40 35l-26 25c-14 10 -27.667 15.333 -41 16c-16.667 1.33301 -32.334 -2.66699 -47.001 -12c-9.33301 -6.66699 -29.666 -23 -60.999 -49
c-46 -36.667 -94 -53.334 -144 -50.001c-34.667 2.66699 -66.334 13.667 -95.001 33c-12.667 8.66699 -32 23.334 -58 44.001c-42.667 32 -89 38 -139 18c-34.667 -14 -72.334 -38.667 -113.001 -74l-19 -19l-33 31c-16.667 12.667 -28 22 -34 28v3
c57.333 56 114.333 94 171 114c79.333 26.667 151.333 17.667 216 -27l29 -21c11.333 -9.33301 20 -16 26 -20c22 -14 42.333 -21 61 -21c19.333 0 39.333 7 60 21c8 4.66699 17.667 12 29 22c14.667 12.667 24.334 20 29.001 22c38.667 30.667 79.334 45 122.001 43
c42.667 -0.666992 81.667 -17.334 117 -50.001l21 -21c8.66699 -8 16 -14.333 22 -19c12.667 -11.333 26.667 -17.333 42 -18c13.333 -2 28 2 44 12c-0.666992 -1.33301 13.666 10 42.999 34c32.667 24.667 51 38 55 40c61.333 36.667 125.666 38.334 192.999 5.00098
c35.333 -18 71.333 -48.333 108 -91c-12 -8 -36.667 -25.333 -74 -52zM1319 195.998c-26.667 26.667 -40.6631 40.3311 -41.9961 40.998c-18.667 14 -35.334 24.667 -50.001 32c-30 13.333 -58.667 10.333 -86 -9c-6 -2 -13.333 -7 -22 -15l-24 -20
c-34.667 -25.333 -56 -40.333 -64 -45c-29.333 -16 -59.333 -22.667 -90 -20c-30.667 3.33301 -59.334 15.333 -86.001 36l-40 33c-16 15.333 -24.667 24 -26 26c-14 10 -27.667 15 -41 15c-16.667 1.33301 -32.334 -2 -47.001 -10l-61 -49c-46 -36.667 -94 -53 -144 -49
c-34.667 0.666992 -66.334 11.334 -95.001 32.001c-12.667 8 -32 22 -58 42c-42.667 32 -89 38.333 -139 19c-34.667 -14 -72.334 -39 -113.001 -75l-19 -18c-9.33301 8 -20.333 18.333 -33 31c-16.667 14 -28 23 -34 27v4c57.333 56 114.333 93.667 171 113
c79.333 26.667 151.333 18.334 216 -24.999c6.66699 -5.33301 16.334 -12.333 29.001 -21c11.333 -10 20 -17.333 26 -22c22 -14 42.333 -21 61 -21c19.333 0 39.333 7 60 21c8 5.33301 17.667 13 29 23c14.667 13.333 24.334 21 29.001 23
c38.667 30 79.334 44.333 122.001 43s81.667 -18 117 -50l21 -20c8.66699 -10 16 -17 22 -21c12.667 -12 26.667 -18.333 42 -19c13.333 -1.33301 28 2.66699 44 12c-0.666992 0 13.666 11.333 42.999 34c32.667 24.667 51 38 55 40c61.333 37.333 125.666 39.333 192.999 6
c35.333 -18 71.333 -48.333 108 -91c-12 -8 -36.667 -25.667 -74 -53zM1319.01 33.9951c-26.667 24.667 -40.6641 37.6689 -41.9971 39.002c-18.667 14 -35.334 24.333 -50.001 31c-30 14 -58.667 12 -86 -6c-6 -4 -13.333 -10 -22 -18c-12 -8.66699 -20 -15 -24 -19
c-34.667 -24 -56 -38.333 -64 -43c-29.333 -16.667 -59.333 -23.667 -90 -21c-30.667 2 -59.334 13.667 -86.001 35l-40 35c-16 16 -24.667 24 -26 24c-14 10 -27.667 15.667 -41 17c-16.667 1.33301 -32.334 -3 -47.001 -13
c-9.33301 -6.66699 -29.666 -22.334 -60.999 -47.001c-46 -36.667 -94 -53.667 -144 -51c-34.667 2 -66.334 13 -95.001 33c-12.667 8.66699 -32 23 -58 43c-42.667 31.333 -89 37.666 -139 18.999c-34.667 -14 -72.334 -38.667 -113.001 -74l-19 -21
c-9.33301 8 -20.333 18.333 -33 31c-16.667 14 -28 24 -34 30v2c57.333 57.333 114.333 95.333 171 114c79.333 27.333 151.333 18.333 216 -27c6.66699 -4 16.334 -11 29.001 -21c11.333 -10 20 -16.667 26 -20c22 -15.333 42.333 -23 61 -23
c19.333 0 39.333 7.66699 60 23c8 6 17.667 13.667 29 23c14.667 12 24.334 19.333 29.001 22c38.667 30 79.334 44.333 122.001 43c42.667 -0.666992 81.667 -17.334 117 -50.001l21 -21c8.66699 -8 16 -14.333 22 -19c12.667 -10.667 26.667 -17 42 -19
c13.333 -1.33301 28 3 44 13c-0.666992 0 13.666 11.333 42.999 34c32.667 24 51 37.333 55 40c61.333 36.667 125.666 38.334 192.999 5.00098c35.333 -18 71.333 -48.667 108 -92z" />
    <glyph glyph-name="uA0011" unicode="&#xa0011;" 
d="M1026 832h41c7.33301 0 12 1.33301 14 4c2.66699 2 4 6.33301 4 13v84v84l-2 10h-193v-57h136v-138zM808 834v195h-196v-59h136v-136h60zM335 970h138v-136h57v193h-195v-57zM345 117c-22 269.333 19.332 544.332 123.999 824.999c-53.333 0 -81.666 0.666992 -84.999 2
c-10.667 0 -20 -2 -28 -6c-7.33301 -3.33301 -14 -9.66602 -20 -18.999c-48.667 -64 -92 -149.333 -130 -256c-46.667 -131.333 -78.667 -277.333 -96 -438c-2.66699 -14 -4.66699 -32 -6 -54c-2 -30.667 -3.66699 -48.667 -5 -54h246zM965.999 941.999l-35.002 0.000976562
c-9.33301 -1.33301 -16.666 -3 -21.999 -5c-6 -4 -11.333 -9.33301 -16 -16c-4.66699 -4.66699 -11.667 -14 -21 -28c-46.667 -70 -88 -159 -124 -267c-40.667 -125.333 -69 -264.333 -85 -417c-1.33301 -6.66699 -3.66602 -37.334 -6.99902 -92.001h244
c-22 270.667 18.667 545.667 122 825h-56zM622.997 117c-20 278 21 553 123 825h-57c-30 0 -48.667 -1.66699 -56 -5c-6 -4 -11.667 -9.33301 -17 -16c-4 -4.66699 -11 -14.667 -21 -30c-48 -72 -90 -164.333 -126 -277c-39.333 -121.333 -67.333 -257.333 -84 -408l-7 -89
h245zM335.997 1174v-54.001h861l-145 -1050h-1052l73 553c8 62.667 20.333 154.334 37 275.001l36 276h190zM1399 69.999h-304l37 277l38 276l75 551h154v-1104zM724.997 222.999c2.66699 32 4 49.334 4 52.001c17.333 189.333 60.333 354 129 494
c2.66699 6.66699 7 15.667 13 27c8 14 13 23.667 15 29c2.66699 4.66699 5.66699 8 9 10s7.33301 2.66699 12 2h28c-64 -212.667 -92 -417.334 -84 -614.001h-126zM447.997 223c0.666992 32 1.66895 49.334 3.00195 52.001c17.333 189.333 60.666 354 129.999 494l17 27
c6 14 10.667 23.667 14 29c2 4.66699 4.66699 8 8 10s7.33301 2.66699 12 2h30c-66.667 -212.667 -95.334 -417.334 -86.001 -614.001h-128zM162.999 223.001c2.66699 32 4 49.334 4 52.001c16 188 57.667 351.333 125 490c3.33301 7.33301 8 16.666 14 27.999
c6 13.333 10.667 22.666 14 27.999c2 4.66699 4.66699 8 8 10c2.66699 2 6.66699 2.66699 12 2h27c-63.333 -211.333 -90.333 -414.666 -81 -609.999h-123z" />
    <glyph glyph-name="uA0012" unicode="&#xa0012;" 
d="M422 496c19.333 -118.667 36.333 -195.666 51 -230.999c32 22 62.667 51.333 92 88c15.333 19.333 38.333 53.666 69 102.999zM1120 157.001c18.667 19.333 27.999 43.333 27.999 72c0 27.333 -9.33301 51 -28 71c-19.333 20 -42.666 30.333 -69.999 31
c-26.667 0 -50 -9.66699 -70 -29c-20 -21.333 -30 -45.666 -30 -72.999c0 -28.667 10 -52.334 30 -71.001c18.667 -19.333 42 -29 70 -29c26.667 0 50 9.33301 70 28zM727.999 383.001c-3.33301 0.666992 -6.33691 0.000976562 -9.00391 -1.99902
c-0.666992 0 -2.66699 -2.33301 -6 -7c-48.667 -68.667 -78.667 -109.667 -90 -123c-25.333 -33.333 -54 -58.666 -86 -75.999c-20 -8.66699 -39 -14.667 -57 -18c-35.333 -6.66699 -63.666 5.33301 -84.999 36c-17.333 25.333 -31.666 61.666 -42.999 108.999
c-17.333 66.667 -33.333 159.334 -48 278.001l-18 157c-10 88 -15.667 140.667 -17 158c-3.33301 30 -11.666 96 -24.999 198c0 -1.33301 -1 3.66699 -3 15c-65.333 5.33301 -133.666 11.333 -204.999 18v107c38 -3.33301 67.333 -6 88 -8c8 0 34.667 -2.33301 80 -7l78 -8
c29.333 -2.66699 47 -16 53 -40c8 -32.667 14.667 -68.334 20 -107.001c3.33301 -20.667 8 -57.334 14 -110.001c0.666992 -4.66699 1.66699 -7.33398 3 -8.00098c1.33301 -1.33301 4 -2.66602 8 -3.99902c53.333 -8.66699 151.666 -26.334 294.999 -53.001l226 -41l226 -41
c25.333 -4 63 -10.667 113 -20c50.667 -8.66699 88.667 -15.667 114 -21c-0.666992 1.33301 3.33301 0.666016 12 -2.00098l-140 -155l-141 -155c34.667 -5.33301 65.667 -17.666 93 -36.999c26.667 -18.667 48.334 -43 65.001 -73c16.667 -28.667 26.667 -60 30 -94
c3.33301 -35.333 -0.666992 -69.333 -12 -102c-10.667 -29.333 -26.667 -55 -48 -77c-20 -22 -43.333 -39.333 -70 -52c-27.333 -12.667 -55.333 -19.667 -84 -21c-31.333 -1.33301 -61 4.33398 -89 17.001c-28.667 10.667 -54.667 28 -78 52
c-22 24.667 -38.667 52.667 -50 84c-12 33.333 -16.333 67 -13 101c3.33301 37.333 16 73 38 107c-78.667 14 -125 22.333 -139 25zM908.995 1201c62.667 -8.66699 104.667 -47.6631 126 -116.996c30.667 20 60 21.333 88 4c28 -18.667 39.667 -46.334 35 -83.001
c45.333 -15.333 75.666 -44.333 90.999 -87c11.333 -30.667 11.333 -61.334 0 -92.001c-114 19.333 -242.333 42.333 -385 69l-384 69c5.33301 22 18 39.667 38 53c20 12 43.667 17 71 15c-3.33301 49.333 14 83.666 52 102.999
c38.667 21.333 76.334 16.666 113.001 -14.001c38 62 89.667 88.667 155 80z" />
    <glyph glyph-name="uA0013" unicode="&#xa0013;" 
d="M816 1282l87.001 -137c65.333 -102.667 108.666 -173.334 129.999 -212.001c34 -56 57.333 -113.667 70 -173c13.333 -63.333 8 -119.666 -16 -168.999c-24 -50 -66 -90.667 -126 -122c-55.333 -29.333 -119 -46.666 -191 -51.999c-98.667 -6.66699 -185.667 8 -261 44
c-72 34.667 -121 83.334 -147 146.001c-12 28 -18 58 -18 90c0 26.667 4.66699 56.667 14 90c15.333 59.333 39.333 114.666 72 165.999l148 232c6.66699 11.333 31.334 50.333 74.001 117c30 48 55.333 87 76 117c-4.66699 5.33301 24.666 -40.334 87.999 -137.001z
M543.001 65c5.33301 4 8 8 8 12c0 5.33301 -2.66699 10 -8 14c-4.66699 2.66699 -11.334 4 -20.001 4h-2c-6.66699 1.33301 -13 0 -19 -4c-6.66699 -3.33301 -10 -8 -10 -14c0 -5.33301 3.33301 -10 10 -14c6.66699 -2.66699 13.667 -4 21 -4c6.66699 0 13.334 2 20.001 6z
M1019 108c-6 -3.33301 -9 -7.66797 -9 -13.001c0 -4.66699 2.66699 -9 8 -13c5.33301 -3.33301 12 -5.66602 20 -6.99902c7.33301 0 14.333 1.66699 21 5c5.33301 4 8 8.66699 8 14c2 5.33301 -0.333008 10 -7 14c-5.33301 4 -12 6 -20 6s-15 -2 -21 -6zM966.001 224.998
c-6 -2.66699 -9 -6.66602 -9 -11.999c0 -4.66699 3 -9.33398 9 -14.001c6 -4 12.333 -6 19 -6c8.66699 0 15.667 2 21 6c5.33301 2.66699 8 6.66699 8 12s-2.66699 10 -8 14c-5.33301 3.33301 -12.333 5.33301 -21 6c-8 0 -14.333 -2 -19 -6zM679.001 116.999
c-6.66699 -4.66699 -9.99902 -9.33398 -9.99902 -14.001c0 -5.33301 2.66699 -9.33301 8 -12c6.66699 -4 13.667 -6 21 -6c8 -1.33301 14.667 0.333984 20 5.00098c5.33301 3.33301 8.66602 7.66602 9.99902 12.999c0 4.66699 -3.33301 9.33398 -10 14.001
c-4.66699 2.66699 -11 4 -19 4s-14.667 -1.33301 -20 -4zM868.002 120.999c5.33301 4.66699 8 9.66699 8 15c0 4.66699 -2.66699 8.66699 -8 12c-5.33301 4 -11.666 6 -18.999 6c-8 0 -15.333 -2 -22 -6c-5.33301 -4 -8 -8.33301 -8 -13c0 -5.33301 2.66699 -10 8 -14
c6.66699 -3.33301 13 -5 19 -5c9.33301 0 16.666 1.66699 21.999 5zM1184 164.999c6.66699 3.33301 9.99902 7.33301 9.99902 12c0 5.33301 -2.33301 10 -7 14c-6.66699 4 -14 6 -22 6c-7.33301 0 -14 -2 -20 -6c-5.33301 -2.66699 -8 -6.66699 -8 -12
c-1.33301 -5.33301 1.33398 -10 8.00098 -14c6 -4 12.667 -6 20 -6c8 0 14.333 2 19 6zM572.001 195.999c-6 -3.33301 -8.66699 -7.33203 -8 -11.999c0 -5.33301 2.66699 -10 8 -14c6.66699 -4.66699 13.667 -6.33398 21 -5.00098c8 0 15 1.66699 21 5
c5.33301 4 8 8.66699 8 14c0 4.66699 -3.33301 9 -10 13c-4.66699 3.33301 -11 5 -19 5c-9.33301 0 -16.333 -2 -21 -6zM404.001 234c-6 -3.33301 -9 -7.66602 -9 -12.999s3 -10 9 -14c6 -4.66699 12.667 -6.33398 20 -5.00098c8 0 14.667 1.66699 20 5
c6.66699 4 10 8.66699 10 14s-3.33301 9.33301 -10 12c-5.33301 4.66699 -12 7 -20 7s-14.667 -2 -20 -6zM747.001 248c-5.33301 -4 -8 -8.66895 -8 -14.002s3 -9.66602 9 -12.999c6.66699 -3.33301 13.667 -5 21 -5c8 0 14.333 2 19 6c5.33301 4.66699 8 9.33398 8 14.001
c0 5.33301 -2.66699 9.33301 -8 12c-6 4.66699 -12.333 7 -19 7c-8.66699 0 -16 -2.33301 -22 -7zM240.001 157.998c6.66699 2.66699 10 6.66699 10 12c0 6 -2.66699 10.667 -8 14c-6 3.33301 -13 5 -21 5s-14.667 -1.66699 -20 -5
c-6.66699 -4.66699 -9.66699 -9.33398 -9 -14.001c0 -5.33301 3 -9.33301 9 -12c5.33301 -3.33301 12 -5.66602 20 -6.99902c8 0 14.333 2.33301 19 7zM338.001 120.998c-6 -2.66699 -9 -6.66699 -9 -12c0 -4.66699 3 -9.33398 9 -14.001
c6 -3.33301 13.333 -4.66602 22 -3.99902c6.66699 0 12.667 2 18 6c6 3.33301 8.66699 7.33301 8 12c0 5.33301 -2.66699 10.333 -8 15c-5.33301 2.66699 -12.333 4 -21 4c-8 0 -14.333 -2.33301 -19 -7zM297.001 29.998c-88.667 13.333 -158.333 31.665 -209 54.998
c-22.667 8.66699 -42.334 20.334 -59.001 35.001c-12 10.667 -18 22 -18 34c0.666992 11.333 7 22.333 19 33c20 16 42.667 29 68 39c51.333 20.667 120 38 206 52c166.667 25.333 346.667 33.333 540 24c156 -6 285 -22.667 387 -50c25.333 -6.66699 65 -21.667 119 -45
c10 -4.66699 21.333 -13 34 -25c9.33301 -9.33301 14 -19 14 -29c0 -9.33301 -4.66699 -18.666 -14 -27.999c-11.333 -11.333 -24.666 -21.333 -39.999 -30c-38.667 -20 -91 -37.333 -157 -52c-134.667 -28 -284 -42.333 -448 -43c-172 0 -319.333 10 -442 30z" />
    <glyph glyph-name="uA0014" unicode="&#xa0014;" 
d="M1206 830l-0.00195312 48.002v95c-1.33301 63.333 -27.666 113 -78.999 149c-19.333 13.333 -39.333 20 -60 20c-21.333 0 -41.666 -6.66699 -60.999 -20c-52 -36 -78 -85.667 -78 -149c-1.33301 -126 -1.33301 -247.333 0 -364c0 -13.333 -2.33301 -25 -7 -35
c-2.66699 -10.667 -8.66699 -20.334 -18 -29.001c-44 -45.333 -66.667 -100.666 -68 -165.999c-0.666992 -38 5.66602 -74 18.999 -108c13.333 -31.333 32.333 -59 57 -83c25.333 -23.333 53.333 -40 84 -50c34 -11.333 68.333 -15 103 -11
c32 5.33301 61.667 16.666 89 33.999c26.667 17.333 49.334 39.666 68.001 66.999c18 28 30.333 57.667 37 89c6.66699 34 7 68 1 102c-10 53.333 -36 101 -78 143c-6 6 -9 14 -9 24v195v49zM1086 1239c18.667 -4 29 -6.66797 31 -8.00098c46 -12 85.667 -39.667 119 -83
c35.333 -42.667 55 -89.667 59 -141c0.666992 -17.333 1 -33.666 1 -48.999v-168c1.33301 -69.333 2 -124.333 2 -165c0 -8.66699 2.66699 -16 8 -22c39.333 -49.333 65.333 -104.666 78 -165.999c10 -58 6.33301 -115.333 -11 -172c-17.333 -57.333 -46.333 -106 -87 -146
c-43.333 -42 -94.666 -70 -153.999 -84c-43.333 -10.667 -87 -10.667 -131 0c-42 9.33301 -80.667 26.666 -116 51.999c-36 26.667 -65.667 59 -89 97c-24.667 40 -40.667 83.333 -48 130c-16.667 108 10 204.333 80 289c4.66699 6 7 13.333 7 22v175
c-0.666992 70.667 -0.666992 129 0 175c2.66699 56 16 104.667 40 146c26 42 63 75.333 111 100c7.33301 4 17 7.33301 29 10c1.33301 0 6.66602 1.66699 15.999 5c6 0.666992 11 1.66699 15 3h40zM466.998 970.001c0 54.667 -19.999 100.332 -59.999 136.999
c-22.667 21.333 -46.667 33 -72 35c-26 2 -50.667 -6 -74 -24c-48 -36 -72 -84.333 -72 -145c-1.33301 -138 -1.33301 -258.667 0 -362c0 -14.667 -2 -27 -6 -37c-4.66699 -10.667 -11.334 -20.334 -20.001 -29.001c-41.333 -43.333 -63.333 -96.666 -66 -159.999
c-2 -38 3.33301 -74.333 16 -109c13.333 -32.667 32.333 -61.334 57 -86.001c24.667 -24 53 -41.333 85 -52c34 -11.333 68.333 -15 103 -11c33.333 5.33301 64 17 92 35c27.333 18.667 50.333 42.334 69 71.001c17.333 28.667 29 60 35 94
c6.66699 34.667 5.66699 69.334 -3 104.001c-11.333 48 -35.666 90.333 -72.999 127c-8.66699 8.66699 -12.334 19 -11.001 31v192v189zM346.999 1239c19.333 -4 29.665 -6.66699 30.998 -8c92 -30.667 150.333 -99.334 175 -206.001c2.66699 -14 4 -33.333 4 -58v-170
c0 -77.333 0.666992 -134.666 2 -171.999c0 -8.66699 2.66699 -16.334 8 -23.001c40 -48.667 65.333 -103.667 76 -165c11.333 -58 8.33301 -115.667 -9 -173c-17.333 -56.667 -47 -105.334 -89 -146.001c-42.667 -42 -93.667 -69.667 -153 -83
c-45.333 -10.667 -90.666 -10.334 -135.999 0.999023c-42.667 10.667 -82.334 30.334 -119.001 59.001c-36 27.333 -65.333 61 -88 101c-23.333 42.667 -37.666 88.334 -42.999 137.001l-2 12v52c1.33301 6 2 9.66699 2 11c7.33301 72.667 34.333 137.334 81 194.001
c6.66699 6.66699 10 14.667 10 24v333c0 18 0.333008 34.667 1 50c5.33301 50 25 96.333 59 139c34.667 43.333 74.334 71 119.001 83l31 8h40zM1143 601.999c-5.33301 -20.667 -3.33203 -39.667 6.00098 -57c5.33301 -11.333 17 -26.333 35 -45
c17.333 -18.667 30.333 -39.667 39 -63c8.66699 -21.333 12.667 -44.333 12 -69c0 -23.333 -4.66699 -46 -14 -68c-8 -22 -20.667 -41.667 -38 -59c-16.667 -16.667 -35.334 -29 -56.001 -37c-20 -8.66699 -41 -13 -63 -13c-21.333 0 -41.666 4.66699 -60.999 14
c-20.667 9.33301 -39 22.333 -55 39c-16.667 16 -29 35.333 -37 58c-8.66699 20.667 -13.334 42.667 -14.001 66c0 22.667 3.66699 44.667 11 66c8 21.333 19.667 41.333 35 60l6 6c2 3.33301 5.66699 7 11 11l11 11c8 8.66699 13.667 16.667 17 24
c2.66699 7.33301 3.66699 17 3 29v17c-1.33301 6.66699 -2 12 -2 16v38c2 38 18 68.333 48 91c9.33301 6.66699 19.333 10 30 10s21 -4 31 -12c28.667 -22.667 43.667 -52.667 45 -90v-43zM403.999 763.999v-206c0 -8.66699 3 -16.334 9 -23.001
c11.333 -12 24 -26.333 38 -43c24.667 -27.333 39 -60 43 -98c5.33301 -38 -0.666992 -73.667 -18 -107c-17.333 -34 -42.333 -59.667 -75 -77c-32 -17.333 -65.333 -22.666 -100 -15.999c-36.667 6.66699 -68 23.667 -94 51c-25.333 26.667 -40.666 59.334 -45.999 98.001
c-8 56.667 6.33301 107 43 151c1.33301 1.33301 3 3.33301 5 6c2.66699 2 6 5.66699 10 11c6.66699 6 11 9.66699 13 11c8 8.66699 13.667 16.667 17 24c2.66699 7.33301 3.66699 17.666 3 30.999v15c-1.33301 7.33301 -2 13 -2 17v181v180c0 36.667 14 67 42 91
c11.333 9.33301 23 14 35 14c11.333 0 22.666 -4.66699 33.999 -14c28.667 -24 43 -53.667 43 -89v-208z" />
    <glyph glyph-name="uA0015" unicode="&#xa0015;" 
d="M1395 657c0 -1.33301 -0.332031 -3.00098 -0.999023 -5.00098c0 -0.666992 -0.666992 -1.66699 -2 -3c-4 -31.333 -13.667 -60.666 -29 -87.999c-14 -25.333 -32.667 -48 -56 -68s-49.333 -35.667 -78 -47c-30 -10.667 -61 -16 -93 -16h-880
c-56.667 0 -108.667 16.667 -156 50c-45.333 34.667 -75.666 79 -90.999 133c-1.33301 2 -5 16.667 -11 44v48c0 1.33301 0.333008 3 1 5c0 2 0.666992 4.33301 2 7c11.333 75.333 50.666 134.666 117.999 177.999c3.33301 2 6.33301 4.33301 9 7c0.666992 2 1 5 1 9
c3.33301 31.333 6.33301 52.333 9 63c22 80.667 59 145 111 193c53.333 50 120.666 82 201.999 96c82 14.667 156.333 8 223 -20c66.667 -27.333 124.334 -74.333 173.001 -141c3.33301 -4 7.33301 -6.33301 12 -7c2 -1.33301 5.33301 -1.33301 10 0c34 8 67.667 10 101 6
c32.667 -4 64 -13.333 94 -28c29.333 -14 55.333 -32.333 78 -55c23.333 -24 41.666 -51.333 54.999 -82c2.66699 -6.66699 9 -11.667 19 -15c86 -29.333 142 -86 168 -170c1.33301 -1.33301 5 -15.666 11 -42.999v-51zM529.001 9.99902c-26 10 -37.999 29.333 -35.999 58
v38v37c0 14 4.33301 25.667 13 35c9.33301 8.66699 20.666 13 33.999 13c14 0 25.333 -4.33301 34 -13c9.33301 -9.33301 14 -21 14 -35v-37v-38c1.33301 -28.667 -10.667 -48 -36 -58h-23zM907.002 9.99902c-26 10 -37.667 29.333 -35 58v38v37c0 14 4.33301 25.667 13 35
c9.33301 8.66699 21 13 35 13c12.667 0 23.667 -4.33301 33 -13c9.33301 -9.33301 14 -21 14 -35v-37v-38c2 -28.667 -10 -48 -36 -58h-24zM398.002 237.999c0 -13.333 -5.33301 -24.333 -16 -33c-8 -9.33301 -19 -14 -33 -14c-12 0 -22.667 4.66699 -32 14
c-8.66699 8.66699 -13 19.667 -13 33v91c0 12.667 4.33301 23.334 13 32.001c9.33301 8.66699 20 13 32 13c14 0 25 -4.33301 33 -13c10.667 -8.66699 16 -19.334 16 -32.001v-91zM777.002 238.999c0 -14 -4.66699 -25.333 -14 -34c-8.66699 -9.33301 -19.667 -14 -33 -14
c-14 0 -25.333 4.66699 -34 14c-9.33301 8.66699 -14 20 -14 34v90c0 12.667 4.66699 23.334 14 32.001c8.66699 8.66699 20 13 34 13c13.333 0 24.333 -4.33301 33 -13c9.33301 -8.66699 14 -19.334 14 -32.001v-90zM1015 328.999c0 12.667 4.00098 23.334 12.001 32.001
c9.33301 8.66699 20.666 13 33.999 13c14 0 25.667 -4.33301 35 -13c8 -8.66699 12 -19.334 12 -32.001v-91c0 -13.333 -4 -24.333 -12 -33c-9.33301 -9.33301 -21 -14 -35 -14c-12 0 -22.667 4.66699 -32 14c-9.33301 8.66699 -14 19.667 -14 33v47v44z" />
    <glyph glyph-name="uA0016" unicode="&#xa0016;" 
d="M601 656c16.667 32 43.335 76.667 80.002 134c9.33301 16.667 19.666 18 30.999 4c54 -66.667 86 -130.334 96 -191.001c9.33301 -53.333 -6.33398 -92.333 -47.001 -117c-19.333 -10.667 -41.333 -16 -66 -16c-26 0 -48.667 6.66699 -68 20
c-14.667 9.33301 -25.667 21 -33 35c-6 12.667 -10.667 30.667 -14 54c12.667 48.667 19.667 74.334 21 77.001zM483.001 237c-9.33301 -20 -23.3359 -34.668 -42.0029 -44.001c-17.333 -9.33301 -35.666 -13.333 -54.999 -12c-19.333 0 -37 4.33301 -53 13
c-39.333 23.333 -54.666 59.333 -45.999 108c4 34 15 67.667 33 101c15.333 28 35 58 59 90c8.66699 10.667 16.334 11.667 23.001 3c60 -73.333 92 -134.333 96 -183c2 -29.333 -3 -54.666 -15 -75.999zM1105 270.999c-10 -15.333 -23.3369 -27.333 -40.0039 -36
c-18 -7.33301 -36.333 -11 -55 -11c-19.333 0 -37.666 3.66699 -54.999 11c-21.333 12 -36.666 27.333 -45.999 46c-10.667 20 -13.667 43.333 -9 70c8.66699 63.333 41.334 129.333 98.001 198c3.33301 6 6.33301 9 9 9c4.66699 0.666992 9 -1 13 -5
c30 -38.667 53.333 -73 70 -103c18.667 -38 29.334 -77 32.001 -117v-6c0 -21.333 -5.66699 -40 -17 -56zM442.994 758.999c-40.667 -19.333 -80.335 -17.332 -119.002 6.00098c-37.333 23.333 -52.333 59.666 -45 108.999c10.667 62 43 127 97 195
c8.66699 9.33301 16.334 10 23.001 2c60.667 -75.333 94.334 -147.333 101.001 -216c1.33301 -44.667 -17.667 -76.667 -57 -96zM1110.99 847c0 -48 -23.999 -80.999 -71.999 -98.999c-22 -7.33301 -44.333 -8.66602 -67 -3.99902c-23.333 5.33301 -42.666 16 -57.999 32
c-14.667 16 -23.334 34 -26.001 54c-3.33301 17.333 -2 36.666 4 57.999c13.333 59.333 45 119.666 95 180.999c7.33301 10.667 14.666 11.334 21.999 2.00098c30 -37.333 52.333 -71.333 67 -102c19.333 -36.667 31 -74.334 35 -113.001v-9zM26.9941 669.001
c7.33301 13.333 32.3311 54.667 74.998 124c2.66699 6.66699 7.33398 10 14.001 10c3.33301 0 8 -3 14 -9c53.333 -67.333 86 -132.333 98 -195c5.33301 -32 2 -59.667 -10 -83c-13.333 -24 -34.333 -40 -63 -48c-18 -6 -36 -8.33301 -54 -7
c-18.667 2.66699 -35.667 9 -51 19c-15.333 9.33301 -27 21.333 -35 36c-10 18 -14.333 37 -13 57l-2 3h-2c16.667 58 26.334 89 29.001 93zM809.992 1036c-9.33301 -15.333 -23.3359 -27.667 -42.0029 -37c-41.333 -18 -80.666 -14.667 -117.999 10
c-33.333 22.667 -47.666 56.334 -42.999 101.001c4.66699 34.667 16.334 69.667 35.001 105c14.667 28.667 35.334 60 62.001 94c4 3.33301 7.33301 5.66602 10 6.99902c4 0 7.66699 -2 11 -6c25.333 -20.667 48.666 -55.667 69.999 -105s31 -89 29 -119
c0 -19.333 -4.66699 -36 -14 -50zM813.989 94.001c2 -20 -2.66602 -37.335 -13.999 -52.002c-10 -15.333 -23.667 -26.666 -41 -33.999c-16.667 -8 -34.334 -11.333 -53.001 -10c-19.333 0 -37 4.33301 -53 13c-40.667 21.333 -57.667 56.333 -51 105
c4 34 15.333 68.333 34 103c14 28.667 34 59 60 91c4 4 7.33301 6.33301 10 7c4 0 7.66699 -1.66699 11 -5c29.333 -37.333 51.333 -69.666 66 -96.999c18 -38 28.333 -75.333 31 -112v-9zM1177.99 667.999c18.667 51.333 47.001 100.001 85.001 146.001
c7.33301 8.66699 12.666 13 15.999 13c4.66699 0 9.66699 -4.33301 15 -13c54 -66 86.333 -130 97 -192c6.66699 -28 5 -52.667 -5 -74c-9.33301 -22.667 -25.333 -39.334 -48 -50.001c-18 -10 -36.667 -15 -56 -15c-20.667 0 -40.667 4 -60 12c-18 10 -32.667 23 -44 39
c-10.667 18 -16 38.667 -16 62c10.667 46 16 70 16 72z" />
    <glyph glyph-name="uA0017" unicode="&#xa0017;" 
d="M921 99l266 1054h-978l111 -527l111 -527h490zM75 1164c-2 10 -1.33496 20.335 1.99805 31.002c2 9.33301 6.66699 18.666 14 27.999c6 8.66699 13.333 15 22 19c9.33301 5.33301 18.333 8 27 8c372 -1.33301 744 -1.33301 1116 0c16 0 30.667 -7.33301 44 -22
c14.667 -14.667 22 -30.334 22 -47.001c0 -18.667 -5.66699 -35.334 -17 -50.001c-12 -14.667 -26.667 -22.667 -44 -24c-1.33301 0 -3.33301 -0.333008 -6 -1h-8l-19 -82l-107 -503l-108 -503c-1.33301 -5.33301 -3 -9 -5 -11c-2.66699 -2.66699 -6.66699 -4 -12 -4h-640
c-5.33301 0 -9.66602 1.33301 -12.999 4c-2 2 -3.33301 6 -4 12l-41 234c-5.33301 24.667 -12.666 63.334 -21.999 116.001c-8 51.333 -14.667 90.333 -20 117l-55 305l-54 304l-3 11c-36.667 2 -59.667 21.333 -69 58zM474.998 148.002l-133.002 715.999
c6 2 9.66699 3 11 3c104.667 6.66699 195 -9 271 -47c26 -13.333 47.333 -27.333 64 -42c58.667 -53.333 130.334 -78 215.001 -74c5.33301 1.33301 40.333 6 105 14c-11.333 -53.333 -17 -78.666 -17 -75.999c-2 -10 -20.333 -89.667 -55 -239
c-22.667 -94.667 -41 -174 -55 -238c-2 -6 -4 -10.667 -6 -14c-3.33301 -3.33301 -8.66602 -5 -15.999 -5c-60.667 1.33301 -183 2 -367 2h-17z" />
    <glyph glyph-name="uA0018" unicode="&#xa0018;" 
d="M408 772c0 -0.666992 -0.331055 -1.66699 -0.998047 -3h-330v329l115 -111c12.667 15.333 20 24.333 22 27c104.667 127.333 236.334 203 395.001 227c65.333 9.33301 130.666 8.33301 195.999 -3c64.667 -11.333 126 -32.333 184 -63c58 -30 109.333 -67.667 154 -113
c46.667 -48 84 -101.667 112 -161c6 -12 20.667 -48 44 -108c7.33301 -20 5.66602 -39.333 -5.00098 -58c-9.33301 -18.667 -23.333 -30.667 -42 -36c-20.667 -5.33301 -39.334 -3.33301 -56.001 6c-16.667 10.667 -28 27 -34 49c-36.667 123.333 -109 217 -217 281
c-54.667 33.333 -112.667 54.666 -174 63.999c-60 9.33301 -119.667 7.33301 -179 -6c-58 -13.333 -112 -37.333 -162 -72c-52 -35.333 -95 -78.666 -129 -129.999c-1.33301 0 -3 -2.33301 -5 -7c0 -0.666992 -0.333008 -1.66699 -1 -3c-1.33301 0 -2 -0.333008 -2 -1z
M1047 422l-58.002 52.998l3 3l5 2h3h310c4.66699 0 7.66699 -0.666992 9 -2c2 -2 3 -5 3 -9v-313v-3c-12.667 11.333 -51 48 -115 110c-3.33301 -4 -7 -8 -11 -12c-111.333 -143.333 -250.333 -224.333 -417 -243c-126 -14.667 -239 1.33301 -339 48
c-100 46 -186.333 120.333 -259 223c-35.333 50 -62.666 109.667 -81.999 179c-5.33301 20.667 -4 39.334 4 56.001c9.33301 17.333 24 28.666 44 33.999c19.333 6 37.333 4 54 -6c16.667 -10.667 28.334 -25.667 35.001 -45c50.667 -168 158 -278.667 322 -332
c50.667 -15.333 102.334 -22.666 155.001 -21.999c51.333 1.33301 100.666 11.333 147.999 30c48.667 18 93 42.333 133 73c41.333 32 76.333 70 105 114c-0.666992 -1.33301 1 1.33398 5 8.00098zM734 406.998c8 2 14.667 7.00195 20 15.002c4 8.66699 5.66699 18 5 28
c-1.33301 9.33301 -5 17.666 -11 24.999c-5.33301 6 -13.333 9.66699 -24 11c-41.333 2 -70.666 25.333 -87.999 70c-4.66699 11.333 -11 19 -19 23c-8.66699 4.66699 -17.667 4.66699 -27 0c-8 -4 -14 -11.333 -18 -22c-3.33301 -10 -3.33301 -20.333 0 -31
c11.333 -34 31 -62.333 59 -85c26.667 -24 55.667 -36.667 87 -38c9.33301 1.33301 14.666 2.66602 15.999 3.99902zM766 911c22 -22.667 36 -37.335 42 -44.002c32.667 -35.333 59.334 -66 80.001 -92c30 -37.333 49 -78.666 57 -123.999
c8.66699 -43.333 5.66699 -90 -9 -140c-14.667 -48 -36.334 -87 -65.001 -117c-30 -29.333 -67 -48.666 -111 -57.999c-30 -4.66699 -59.667 -3 -89 5c-28.667 8.66699 -55 22.667 -79 42c-24 20.667 -43.333 45.667 -58 75c-16 30 -26.333 62.667 -31 98
c-11.333 92 12.667 171 72 237l73 79l37 40l36 41l5 3z" />
    <glyph glyph-name="uA0019" unicode="&#xa0019;" 
d="M772 1161c38 -41.333 66.998 -84 86.998 -128c36.667 -82 39.334 -158 8.00098 -228v-8c46.667 64.667 61.334 129.667 44.001 195c-9.33301 38 -28.333 72.667 -57 104c-21.333 24.667 -51.333 49.667 -90 75zM853.998 1219c54 -90.667 88.665 -176.667 103.998 -258
c10.667 -60.667 8.66699 -111.334 -6 -152.001c-20.667 -56.667 -65 -101.667 -133 -135c-53.333 -25.333 -110 -33.333 -170 -24c-62 8.66699 -113.333 33.334 -154 74.001c-26.667 24.667 -45 54 -55 88c-9.33301 30.667 -12.666 66 -9.99902 106
c4 42 15.333 85.667 34 131c16 36 37.667 75.333 65 118c46.667 70.667 109.334 145 188.001 223l5 4c48.667 -50 92.667 -108.333 132 -175zM1254 424c-24 30 -37.0039 46.3311 -39.0039 48.998c-16 18 -31.333 32 -46 42c-12.667 8 -25.334 11.333 -38.001 10
c-12 -1.33301 -24 -8.33301 -36 -21c-6 -4 -13.333 -11.333 -22 -22c-10 -10.667 -16.667 -18.334 -20 -23.001c-32.667 -31.333 -51.334 -49.666 -56.001 -54.999c-26.667 -19.333 -54 -27.666 -82 -24.999c-27.333 4 -53 18.333 -77 43l-34 44
c-1.33301 0.666992 -5 5.33398 -11 14.001l-13 16c-12.667 12.667 -25 19.667 -37 21c-14 0.666992 -27.333 -4.33301 -40 -15c-8 -8 -26.667 -28 -56 -60c-40 -44.667 -82.333 -65 -127 -61c-31.333 2.66699 -59.666 15.667 -84.999 39c-12.667 11.333 -30 29 -52 53
c-37.333 40 -79 47.667 -125 23c-31.333 -16.667 -64.666 -47.334 -99.999 -92.001c0.666992 1.33301 -4.66602 -6.33398 -15.999 -23.001l-30 37c-13.333 16 -23.333 28.333 -30 37v4c50.667 68.667 101.334 115.334 152.001 140.001c70.667 34 135 23.333 193 -32l24 -27
l25 -25c18.667 -18 36.334 -27 53.001 -27c18 0 36.333 9 55 27c6.66699 6.66699 15 16 25 28c14 16 22.333 25.667 25 29c34.667 37.333 71 54.333 109 51c38.667 -1.33301 73.667 -21.666 105 -60.999c2.66699 -4 8.66699 -12 18 -24
c7.33301 -12 13.666 -20.333 18.999 -25c12.667 -15.333 25.334 -23.666 38.001 -24.999s26.334 4 41.001 16c-1.33301 0 11.667 13.667 39 41c28 30.667 43.667 48 47 52c54 45.333 111 47.333 171 6c32 -22.667 64.333 -60.334 97 -113.001zM1251.99 221.998
l-11.999 19.998c-36 40 -56.333 63 -61 69c-14.667 12.667 -30 18.334 -46 17.001c-14.667 -1.33301 -28.667 -10 -42 -26l-29 -30c-15.333 -20 -24 -30.667 -26 -32c-28.667 -33.333 -57 -53 -85 -59c-42.667 -10 -80.667 4 -114 42l-43 58
c-18.667 24 -36.334 36.667 -53.001 38c-16 1.33301 -34.333 -9.33398 -55 -32.001c-5.33301 -5.33301 -12.666 -13.666 -21.999 -24.999c-10.667 -13.333 -18.334 -21.666 -23.001 -24.999c-34.667 -39.333 -71 -59.666 -109 -60.999c-36 0 -72.333 18.667 -109 56
c-4.66699 3.33301 -18.334 18.333 -41.001 45c-35.333 38 -75.666 46 -120.999 24c-29.333 -16 -59.666 -44 -90.999 -84l-26 -39l-32 39l-30 38v4c55.333 78.667 110.333 129 165 151c64.667 28 123.667 14.667 177 -40c6.66699 -5.33301 15 -13.666 25 -24.999
c12 -12.667 20.333 -22 25 -28c20 -20 38.333 -30 55 -30c18 1.33301 36.333 12 55 32c7.33301 6 16.666 16.667 27.999 32c12.667 14.667 22.334 24.667 29.001 30c48 50.667 98.667 62 152 34c20 -10 41.333 -30.667 64 -62l33 -44c10.667 -12 21 -18.667 31 -20
c10.667 -1.33301 21.667 2.66699 33 12c7.33301 5.33301 18.333 15.666 33 30.999c4 4 12.333 13.333 25 28l24 30c30 29.333 61.333 45.666 94 48.999c31.333 2 63.333 -9.33301 96 -34c16.667 -13.333 33.667 -32 51 -56c19.333 -22 32.666 -42 39.999 -60z
M1232.99 42.9961l-13.999 20.999c-34 38.667 -53.667 59.667 -59 63c-14.667 12.667 -30 18 -46 16c-15.333 -1.33301 -30 -9 -44 -23c-7.33301 -6.66699 -16 -16 -26 -28c-16.667 -18.667 -25.667 -29 -27 -31c-29.333 -32 -58 -50.667 -86 -56
c-43.333 -9.33301 -81.666 4.66699 -114.999 42l-42 52c-18.667 24.667 -36 37 -52 37c-16.667 1.33301 -35 -8.66699 -55 -30c-5.33301 -6 -13 -14 -23 -24l-22 -25c-35.333 -36 -71.333 -54.667 -108 -56c-38 0 -74.667 17.333 -110 52l-42 43
c-36 37.333 -76.333 44.333 -121 21c-28.667 -14 -58.667 -39.333 -90 -76c-0.666992 -1.33301 -10 -14 -28 -38c-6 8 -16.333 20 -31 36c-12.667 16.667 -22.667 28.667 -30 36l2 5c55.333 73.333 109.666 120.666 162.999 141.999c65.333 25.333 124.666 13 177.999 -37
c6.66699 -6 15.334 -14.333 26.001 -25c11.333 -12.667 19.666 -20.667 24.999 -24c18.667 -18.667 36.667 -28 54 -28c18 0 36.333 9.33301 55 28l29 30l28 30c46.667 46.667 97.334 57.667 152.001 33c20 -11.333 41 -31.666 63 -60.999l34 -42
c9.33301 -10.667 19.333 -16.667 30 -18c11.333 -1.33301 22.333 1.66699 33 9c8 6 19.333 16.333 34 31l24 28c10.667 10.667 19 19.334 25 26.001c30 28.667 61 44 93 46c32 2.66699 64.333 -8 97 -32c15.333 -12 32.666 -28.667 51.999 -50
c18.667 -22.667 31.667 -42 39 -58z" />
  </font>
</defs>
</svg>
